%TF.GenerationSoftware,KiCad,Pcbnew,(6.0.7)*%
%TF.CreationDate,2022-10-05T11:52:24+02:00*%
%TF.ProjectId,STK3700_Expansion_board,53544b33-3730-4305-9f45-7870616e7369,rev?*%
%TF.SameCoordinates,Original*%
%TF.FileFunction,Soldermask,Bot*%
%TF.FilePolarity,Negative*%
%FSLAX46Y46*%
G04 Gerber Fmt 4.6, Leading zero omitted, Abs format (unit mm)*
G04 Created by KiCad (PCBNEW (6.0.7)) date 2022-10-05 11:52:24*
%MOMM*%
%LPD*%
G01*
G04 APERTURE LIST*
G04 Aperture macros list*
%AMRoundRect*
0 Rectangle with rounded corners*
0 $1 Rounding radius*
0 $2 $3 $4 $5 $6 $7 $8 $9 X,Y pos of 4 corners*
0 Add a 4 corners polygon primitive as box body*
4,1,4,$2,$3,$4,$5,$6,$7,$8,$9,$2,$3,0*
0 Add four circle primitives for the rounded corners*
1,1,$1+$1,$2,$3*
1,1,$1+$1,$4,$5*
1,1,$1+$1,$6,$7*
1,1,$1+$1,$8,$9*
0 Add four rect primitives between the rounded corners*
20,1,$1+$1,$2,$3,$4,$5,0*
20,1,$1+$1,$4,$5,$6,$7,0*
20,1,$1+$1,$6,$7,$8,$9,0*
20,1,$1+$1,$8,$9,$2,$3,0*%
G04 Aperture macros list end*
%ADD10C,1.700000*%
%ADD11C,2.200000*%
%ADD12RoundRect,0.350000X0.450000X-0.350000X0.450000X0.350000X-0.450000X0.350000X-0.450000X-0.350000X0*%
%ADD13RoundRect,0.525000X-0.425000X-0.425000X0.425000X-0.425000X0.425000X0.425000X-0.425000X0.425000X0*%
%ADD14O,1.900000X1.900000*%
%ADD15C,1.900000*%
%ADD16RoundRect,0.337500X-0.300000X-0.237500X0.300000X-0.237500X0.300000X0.237500X-0.300000X0.237500X0*%
%ADD17C,1.950000*%
G04 APERTURE END LIST*
D10*
%TO.C,TP1*%
X69850000Y-55880000D03*
%TD*%
%TO.C,TP2*%
X69850000Y-49530000D03*
%TD*%
%TO.C,TP3*%
X80645000Y-50165000D03*
%TD*%
%TO.C,TP4*%
X73025000Y-60960000D03*
%TD*%
%TO.C,TP6*%
X78740000Y-71120000D03*
%TD*%
%TO.C,TP7*%
X78740000Y-76200000D03*
%TD*%
%TO.C,TP8*%
X69850000Y-87630000D03*
%TD*%
D11*
%TO.C,TP5*%
X103505000Y-53340000D03*
%TD*%
%TO.C,TP9*%
X76835000Y-92075000D03*
%TD*%
%TO.C,SW1*%
X84380000Y-63210000D03*
X90880000Y-63210000D03*
X84380000Y-58710000D03*
X90880000Y-58710000D03*
%TD*%
D12*
%TO.C,R8*%
X79375000Y-58690000D03*
X79375000Y-60690000D03*
%TD*%
%TO.C,R7*%
X95250000Y-60690000D03*
X95250000Y-58690000D03*
%TD*%
D13*
%TO.C,J1*%
X60960000Y-82550000D03*
D14*
X63500000Y-82550000D03*
X60960000Y-80010000D03*
X63500000Y-80010000D03*
X60960000Y-77470000D03*
X63500000Y-77470000D03*
X60960000Y-74930000D03*
X63500000Y-74930000D03*
X60960000Y-72390000D03*
X63500000Y-72390000D03*
X60960000Y-69850000D03*
X63500000Y-69850000D03*
X60960000Y-67310000D03*
X63500000Y-67310000D03*
X60960000Y-64770000D03*
X63500000Y-64770000D03*
X60960000Y-62230000D03*
X63500000Y-62230000D03*
X60960000Y-59690000D03*
D15*
X63500000Y-59690000D03*
%TD*%
D16*
%TO.C,C3*%
X81100000Y-63500000D03*
X79375000Y-63500000D03*
%TD*%
D17*
X95250000Y-66675000D03*
X86360000Y-84455000D03*
X86360000Y-87630000D03*
X69850000Y-69215000D03*
X69850000Y-78105000D03*
M02*
