%TF.GenerationSoftware,KiCad,Pcbnew,(6.0.7)*%
%TF.CreationDate,2022-10-05T11:52:24+02:00*%
%TF.ProjectId,STK3700_Expansion_board,53544b33-3730-4305-9f45-7870616e7369,rev?*%
%TF.SameCoordinates,Original*%
%TF.FileFunction,Copper,L2,Bot*%
%TF.FilePolarity,Positive*%
%FSLAX46Y46*%
G04 Gerber Fmt 4.6, Leading zero omitted, Abs format (unit mm)*
G04 Created by KiCad (PCBNEW (6.0.7)) date 2022-10-05 11:52:24*
%MOMM*%
%LPD*%
G01*
G04 APERTURE LIST*
G04 Aperture macros list*
%AMRoundRect*
0 Rectangle with rounded corners*
0 $1 Rounding radius*
0 $2 $3 $4 $5 $6 $7 $8 $9 X,Y pos of 4 corners*
0 Add a 4 corners polygon primitive as box body*
4,1,4,$2,$3,$4,$5,$6,$7,$8,$9,$2,$3,0*
0 Add four circle primitives for the rounded corners*
1,1,$1+$1,$2,$3*
1,1,$1+$1,$4,$5*
1,1,$1+$1,$6,$7*
1,1,$1+$1,$8,$9*
0 Add four rect primitives between the rounded corners*
20,1,$1+$1,$2,$3,$4,$5,0*
20,1,$1+$1,$4,$5,$6,$7,0*
20,1,$1+$1,$6,$7,$8,$9,0*
20,1,$1+$1,$8,$9,$2,$3,0*%
G04 Aperture macros list end*
%TA.AperFunction,ComponentPad*%
%ADD10C,1.500000*%
%TD*%
%TA.AperFunction,ComponentPad*%
%ADD11C,2.000000*%
%TD*%
%TA.AperFunction,SMDPad,CuDef*%
%ADD12RoundRect,0.250000X0.450000X-0.350000X0.450000X0.350000X-0.450000X0.350000X-0.450000X-0.350000X0*%
%TD*%
%TA.AperFunction,ComponentPad*%
%ADD13RoundRect,0.425000X-0.425000X-0.425000X0.425000X-0.425000X0.425000X0.425000X-0.425000X0.425000X0*%
%TD*%
%TA.AperFunction,ComponentPad*%
%ADD14O,1.700000X1.700000*%
%TD*%
%TA.AperFunction,ComponentPad*%
%ADD15C,1.700000*%
%TD*%
%TA.AperFunction,SMDPad,CuDef*%
%ADD16RoundRect,0.237500X-0.300000X-0.237500X0.300000X-0.237500X0.300000X0.237500X-0.300000X0.237500X0*%
%TD*%
%TA.AperFunction,ViaPad*%
%ADD17C,1.750000*%
%TD*%
%TA.AperFunction,Conductor*%
%ADD18C,0.250000*%
%TD*%
%TA.AperFunction,Conductor*%
%ADD19C,0.750000*%
%TD*%
G04 APERTURE END LIST*
D10*
%TO.P,TP1,1,1*%
%TO.N,+3V3*%
X69850000Y-55880000D03*
%TD*%
%TO.P,TP2,1,1*%
%TO.N,+5V*%
X69850000Y-49530000D03*
%TD*%
%TO.P,TP3,1,1*%
%TO.N,/USER_LED*%
X80645000Y-50165000D03*
%TD*%
%TO.P,TP4,1,1*%
%TO.N,/USER_BTN*%
X73025000Y-60960000D03*
%TD*%
%TO.P,TP6,1,1*%
%TO.N,/SCL*%
X78740000Y-71120000D03*
%TD*%
%TO.P,TP7,1,1*%
%TO.N,/SDA*%
X78740000Y-76200000D03*
%TD*%
%TO.P,TP8,1,1*%
%TO.N,VMCU*%
X69850000Y-87630000D03*
%TD*%
D11*
%TO.P,TP5,1,1*%
%TO.N,GND*%
X103505000Y-53340000D03*
%TD*%
%TO.P,TP9,1,1*%
%TO.N,GND*%
X76835000Y-92075000D03*
%TD*%
%TO.P,SW1,2,2*%
%TO.N,GND*%
X84380000Y-63210000D03*
X90880000Y-63210000D03*
%TO.P,SW1,1,1*%
%TO.N,Net-(R1-Pad2)*%
X84380000Y-58710000D03*
X90880000Y-58710000D03*
%TD*%
D12*
%TO.P,R8,2*%
%TO.N,Net-(R1-Pad2)*%
X79375000Y-58690000D03*
%TO.P,R8,1*%
%TO.N,/USER_BTN*%
X79375000Y-60690000D03*
%TD*%
%TO.P,R7,1*%
%TO.N,VMCU*%
X95250000Y-60690000D03*
%TO.P,R7,2*%
%TO.N,Net-(R1-Pad2)*%
X95250000Y-58690000D03*
%TD*%
D13*
%TO.P,J1,1,GND*%
%TO.N,GND*%
X60960000Y-82550000D03*
D14*
%TO.P,J1,2,VMCU*%
%TO.N,VMCU*%
X63500000Y-82550000D03*
%TO.P,J1,3,PC0*%
%TO.N,unconnected-(J1-Pad3)*%
X60960000Y-80010000D03*
%TO.P,J1,4,PD0*%
%TO.N,unconnected-(J1-Pad4)*%
X63500000Y-80010000D03*
%TO.P,J1,5,PC3*%
%TO.N,unconnected-(J1-Pad5)*%
X60960000Y-77470000D03*
%TO.P,J1,6,PD1*%
%TO.N,unconnected-(J1-Pad6)*%
X63500000Y-77470000D03*
%TO.P,J1,7,PC4*%
%TO.N,/SDA*%
X60960000Y-74930000D03*
%TO.P,J1,8,PD2*%
%TO.N,unconnected-(J1-Pad8)*%
X63500000Y-74930000D03*
%TO.P,J1,9,PC5*%
%TO.N,/SCL*%
X60960000Y-72390000D03*
%TO.P,J1,10,PD3*%
%TO.N,unconnected-(J1-Pad10)*%
X63500000Y-72390000D03*
%TO.P,J1,11,PB11*%
%TO.N,unconnected-(J1-Pad11)*%
X60960000Y-69850000D03*
%TO.P,J1,12,PD4*%
%TO.N,unconnected-(J1-Pad12)*%
X63500000Y-69850000D03*
%TO.P,J1,13,PB12*%
%TO.N,/USER_BTN*%
X60960000Y-67310000D03*
%TO.P,J1,14,PD5*%
%TO.N,unconnected-(J1-Pad14)*%
X63500000Y-67310000D03*
%TO.P,J1,15,PC6*%
%TO.N,unconnected-(J1-Pad15)*%
X60960000Y-64770000D03*
%TO.P,J1,16,PD6*%
%TO.N,unconnected-(J1-Pad16)*%
X63500000Y-64770000D03*
%TO.P,J1,17,PD7*%
%TO.N,/USER_LED*%
X60960000Y-62230000D03*
%TO.P,J1,18,5V*%
%TO.N,+5V*%
X63500000Y-62230000D03*
%TO.P,J1,19,GND*%
%TO.N,GND*%
X60960000Y-59690000D03*
D15*
%TO.P,J1,20,3V3*%
%TO.N,+3V3*%
X63500000Y-59690000D03*
%TD*%
D16*
%TO.P,C3,2*%
%TO.N,GND*%
X81100000Y-63500000D03*
%TO.P,C3,1*%
%TO.N,/USER_BTN*%
X79375000Y-63500000D03*
%TD*%
D17*
%TO.N,VMCU*%
X95250000Y-66675000D03*
X86360000Y-84455000D03*
X86360000Y-87630000D03*
X69850000Y-69215000D03*
X69850000Y-78105000D03*
%TD*%
D18*
%TO.N,Net-(R1-Pad2)*%
X90880000Y-58710000D02*
X84380000Y-58710000D01*
%TO.N,/USER_BTN*%
X79105000Y-60960000D02*
X73025000Y-60960000D01*
X79375000Y-60690000D02*
X79105000Y-60960000D01*
X79375000Y-60690000D02*
X79375000Y-63500000D01*
%TO.N,Net-(R1-Pad2)*%
X84380000Y-58710000D02*
X79395000Y-58710000D01*
X79395000Y-58710000D02*
X79375000Y-58690000D01*
X95230000Y-58710000D02*
X90880000Y-58710000D01*
X95250000Y-58690000D02*
X95230000Y-58710000D01*
D19*
%TO.N,VMCU*%
X95250000Y-66675000D02*
X95250000Y-60690000D01*
X86360000Y-87630000D02*
X86360000Y-84455000D01*
X69850000Y-78105000D02*
X69850000Y-69215000D01*
X69850000Y-87630000D02*
X69850000Y-78105000D01*
%TD*%
%TA.AperFunction,Conductor*%
%TO.N,GND*%
G36*
X113733621Y-43708502D02*
G01*
X113780114Y-43762158D01*
X113791500Y-43814500D01*
X113791500Y-98425500D01*
X113771498Y-98493621D01*
X113717842Y-98540114D01*
X113665500Y-98551500D01*
X59054500Y-98551500D01*
X58986379Y-98531498D01*
X58939886Y-98477842D01*
X58928500Y-98425500D01*
X58928500Y-93307670D01*
X75967160Y-93307670D01*
X75972887Y-93315320D01*
X76144042Y-93420205D01*
X76152837Y-93424687D01*
X76362988Y-93511734D01*
X76372373Y-93514783D01*
X76593554Y-93567885D01*
X76603301Y-93569428D01*
X76830070Y-93587275D01*
X76839930Y-93587275D01*
X77066699Y-93569428D01*
X77076446Y-93567885D01*
X77297627Y-93514783D01*
X77307012Y-93511734D01*
X77517163Y-93424687D01*
X77525958Y-93420205D01*
X77693445Y-93317568D01*
X77702907Y-93307110D01*
X77699124Y-93298334D01*
X76847812Y-92447022D01*
X76833868Y-92439408D01*
X76832035Y-92439539D01*
X76825420Y-92443790D01*
X75973920Y-93295290D01*
X75967160Y-93307670D01*
X58928500Y-93307670D01*
X58928500Y-92079930D01*
X75322725Y-92079930D01*
X75340572Y-92306699D01*
X75342115Y-92316446D01*
X75395217Y-92537627D01*
X75398266Y-92547012D01*
X75485313Y-92757163D01*
X75489795Y-92765958D01*
X75592432Y-92933445D01*
X75602890Y-92942907D01*
X75611666Y-92939124D01*
X76462978Y-92087812D01*
X76469356Y-92076132D01*
X77199408Y-92076132D01*
X77199539Y-92077965D01*
X77203790Y-92084580D01*
X78055290Y-92936080D01*
X78067670Y-92942840D01*
X78075320Y-92937113D01*
X78180205Y-92765958D01*
X78184687Y-92757163D01*
X78271734Y-92547012D01*
X78274783Y-92537627D01*
X78327885Y-92316446D01*
X78329428Y-92306699D01*
X78347275Y-92079930D01*
X78347275Y-92070070D01*
X78329428Y-91843301D01*
X78327885Y-91833554D01*
X78274783Y-91612373D01*
X78271734Y-91602988D01*
X78184687Y-91392837D01*
X78180205Y-91384042D01*
X78077568Y-91216555D01*
X78067110Y-91207093D01*
X78058334Y-91210876D01*
X77207022Y-92062188D01*
X77199408Y-92076132D01*
X76469356Y-92076132D01*
X76470592Y-92073868D01*
X76470461Y-92072035D01*
X76466210Y-92065420D01*
X75614710Y-91213920D01*
X75602330Y-91207160D01*
X75594680Y-91212887D01*
X75489795Y-91384042D01*
X75485313Y-91392837D01*
X75398266Y-91602988D01*
X75395217Y-91612373D01*
X75342115Y-91833554D01*
X75340572Y-91843301D01*
X75322725Y-92070070D01*
X75322725Y-92079930D01*
X58928500Y-92079930D01*
X58928500Y-90842890D01*
X75967093Y-90842890D01*
X75970876Y-90851666D01*
X76822188Y-91702978D01*
X76836132Y-91710592D01*
X76837965Y-91710461D01*
X76844580Y-91706210D01*
X77696080Y-90854710D01*
X77702840Y-90842330D01*
X77697113Y-90834680D01*
X77525958Y-90729795D01*
X77517163Y-90725313D01*
X77307012Y-90638266D01*
X77297627Y-90635217D01*
X77076446Y-90582115D01*
X77066699Y-90580572D01*
X76839930Y-90562725D01*
X76830070Y-90562725D01*
X76603301Y-90580572D01*
X76593554Y-90582115D01*
X76372373Y-90635217D01*
X76362988Y-90638266D01*
X76152837Y-90725313D01*
X76144042Y-90729795D01*
X75976555Y-90832432D01*
X75967093Y-90842890D01*
X58928500Y-90842890D01*
X58928500Y-83037825D01*
X59602001Y-83037825D01*
X59602195Y-83042756D01*
X59607958Y-83116003D01*
X59609905Y-83127332D01*
X59657464Y-83304825D01*
X59662168Y-83317079D01*
X59745214Y-83480066D01*
X59752364Y-83491077D01*
X59867485Y-83633238D01*
X59876762Y-83642515D01*
X60018923Y-83757636D01*
X60029934Y-83764786D01*
X60192921Y-83847832D01*
X60205175Y-83852536D01*
X60382666Y-83900095D01*
X60393999Y-83902042D01*
X60467246Y-83907807D01*
X60472172Y-83908000D01*
X60687885Y-83908000D01*
X60703124Y-83903525D01*
X60704329Y-83902135D01*
X60706000Y-83894452D01*
X60706000Y-82822115D01*
X60701525Y-82806876D01*
X60700135Y-82805671D01*
X60692452Y-82804000D01*
X59620116Y-82804000D01*
X59604877Y-82808475D01*
X59603672Y-82809865D01*
X59602001Y-82817548D01*
X59602001Y-83037825D01*
X58928500Y-83037825D01*
X58928500Y-79976695D01*
X59597251Y-79976695D01*
X59597548Y-79981848D01*
X59597548Y-79981851D01*
X59603011Y-80076590D01*
X59610110Y-80199715D01*
X59611247Y-80204761D01*
X59611248Y-80204767D01*
X59631119Y-80292939D01*
X59659222Y-80417639D01*
X59743266Y-80624616D01*
X59794019Y-80707438D01*
X59857291Y-80810688D01*
X59859987Y-80815088D01*
X60006250Y-80983938D01*
X60130151Y-81086802D01*
X60169786Y-81145704D01*
X60171284Y-81216685D01*
X60134170Y-81277208D01*
X60106869Y-81296013D01*
X60029934Y-81335214D01*
X60018923Y-81342364D01*
X59876762Y-81457485D01*
X59867485Y-81466762D01*
X59752364Y-81608923D01*
X59745214Y-81619934D01*
X59662168Y-81782921D01*
X59657464Y-81795175D01*
X59609905Y-81972666D01*
X59607958Y-81983999D01*
X59602193Y-82057246D01*
X59602000Y-82062173D01*
X59602000Y-82277885D01*
X59606475Y-82293124D01*
X59607865Y-82294329D01*
X59615548Y-82296000D01*
X61088000Y-82296000D01*
X61156121Y-82316002D01*
X61202614Y-82369658D01*
X61214000Y-82422000D01*
X61214000Y-83889884D01*
X61218475Y-83905123D01*
X61219865Y-83906328D01*
X61227548Y-83907999D01*
X61447825Y-83907999D01*
X61452756Y-83907805D01*
X61526003Y-83902042D01*
X61537332Y-83900095D01*
X61714825Y-83852536D01*
X61727079Y-83847832D01*
X61890066Y-83764786D01*
X61901077Y-83757636D01*
X62043238Y-83642515D01*
X62052515Y-83633238D01*
X62167636Y-83491077D01*
X62174788Y-83480063D01*
X62213320Y-83404439D01*
X62262067Y-83352823D01*
X62330982Y-83335757D01*
X62398184Y-83358657D01*
X62420824Y-83379143D01*
X62542865Y-83520031D01*
X62542869Y-83520035D01*
X62546250Y-83523938D01*
X62718126Y-83666632D01*
X62911000Y-83779338D01*
X63119692Y-83859030D01*
X63124760Y-83860061D01*
X63124763Y-83860062D01*
X63232017Y-83881883D01*
X63338597Y-83903567D01*
X63343772Y-83903757D01*
X63343774Y-83903757D01*
X63556673Y-83911564D01*
X63556677Y-83911564D01*
X63561837Y-83911753D01*
X63566957Y-83911097D01*
X63566959Y-83911097D01*
X63778288Y-83884025D01*
X63778289Y-83884025D01*
X63783416Y-83883368D01*
X63788366Y-83881883D01*
X63992429Y-83820661D01*
X63992434Y-83820659D01*
X63997384Y-83819174D01*
X64197994Y-83720896D01*
X64379860Y-83591173D01*
X64385433Y-83585620D01*
X64534435Y-83437137D01*
X64538096Y-83433489D01*
X64552266Y-83413770D01*
X64665435Y-83256277D01*
X64668453Y-83252077D01*
X64698513Y-83191256D01*
X64765136Y-83056453D01*
X64765137Y-83056451D01*
X64767430Y-83051811D01*
X64832370Y-82838069D01*
X64861529Y-82616590D01*
X64863156Y-82550000D01*
X64844852Y-82327361D01*
X64790431Y-82110702D01*
X64701354Y-81905840D01*
X64621834Y-81782921D01*
X64582822Y-81722617D01*
X64582820Y-81722614D01*
X64580014Y-81718277D01*
X64429670Y-81553051D01*
X64425619Y-81549852D01*
X64425615Y-81549848D01*
X64258414Y-81417800D01*
X64258410Y-81417798D01*
X64254359Y-81414598D01*
X64213053Y-81391796D01*
X64163084Y-81341364D01*
X64148312Y-81271921D01*
X64173428Y-81205516D01*
X64200780Y-81178909D01*
X64247332Y-81145704D01*
X64379860Y-81051173D01*
X64538096Y-80893489D01*
X64597594Y-80810689D01*
X64665435Y-80716277D01*
X64668453Y-80712077D01*
X64689320Y-80669857D01*
X64765136Y-80516453D01*
X64765137Y-80516451D01*
X64767430Y-80511811D01*
X64832370Y-80298069D01*
X64861529Y-80076590D01*
X64863156Y-80010000D01*
X64844852Y-79787361D01*
X64790431Y-79570702D01*
X64701354Y-79365840D01*
X64580014Y-79178277D01*
X64429670Y-79013051D01*
X64425619Y-79009852D01*
X64425615Y-79009848D01*
X64258414Y-78877800D01*
X64258410Y-78877798D01*
X64254359Y-78874598D01*
X64213053Y-78851796D01*
X64163084Y-78801364D01*
X64148312Y-78731921D01*
X64173428Y-78665516D01*
X64200780Y-78638909D01*
X64244603Y-78607650D01*
X64379860Y-78511173D01*
X64538096Y-78353489D01*
X64574191Y-78303258D01*
X64665435Y-78176277D01*
X64668453Y-78172077D01*
X64689320Y-78129857D01*
X64718368Y-78071082D01*
X68462172Y-78071082D01*
X68462469Y-78076234D01*
X68462469Y-78076238D01*
X68468279Y-78176994D01*
X68475268Y-78298206D01*
X68476405Y-78303252D01*
X68476406Y-78303258D01*
X68496686Y-78393244D01*
X68525283Y-78520141D01*
X68610875Y-78730927D01*
X68729744Y-78924904D01*
X68878698Y-79096861D01*
X68920986Y-79131969D01*
X68960620Y-79190873D01*
X68966500Y-79228913D01*
X68966500Y-86681523D01*
X68946498Y-86749644D01*
X68929595Y-86770618D01*
X68882251Y-86817962D01*
X68879094Y-86822470D01*
X68879092Y-86822473D01*
X68759101Y-86993838D01*
X68755944Y-86998347D01*
X68753621Y-87003329D01*
X68753618Y-87003334D01*
X68706415Y-87104562D01*
X68662880Y-87197924D01*
X68605885Y-87410629D01*
X68586693Y-87630000D01*
X68605885Y-87849371D01*
X68662880Y-88062076D01*
X68665205Y-88067061D01*
X68753618Y-88256666D01*
X68753621Y-88256671D01*
X68755944Y-88261653D01*
X68759100Y-88266160D01*
X68759101Y-88266162D01*
X68817244Y-88349198D01*
X68882251Y-88442038D01*
X69037962Y-88597749D01*
X69218346Y-88724056D01*
X69417924Y-88817120D01*
X69630629Y-88874115D01*
X69850000Y-88893307D01*
X70069371Y-88874115D01*
X70282076Y-88817120D01*
X70481654Y-88724056D01*
X70662038Y-88597749D01*
X70817749Y-88442038D01*
X70882757Y-88349198D01*
X70940899Y-88266162D01*
X70940900Y-88266160D01*
X70944056Y-88261653D01*
X70946379Y-88256671D01*
X70946382Y-88256666D01*
X71034795Y-88067061D01*
X71037120Y-88062076D01*
X71094115Y-87849371D01*
X71113307Y-87630000D01*
X71110340Y-87596082D01*
X84972172Y-87596082D01*
X84972469Y-87601234D01*
X84972469Y-87601238D01*
X84974443Y-87635475D01*
X84985268Y-87823206D01*
X84986405Y-87828252D01*
X84986406Y-87828258D01*
X84992361Y-87854681D01*
X85035283Y-88045141D01*
X85120875Y-88255927D01*
X85239744Y-88449904D01*
X85388698Y-88621861D01*
X85563737Y-88767181D01*
X85568189Y-88769783D01*
X85568194Y-88769786D01*
X85747551Y-88874594D01*
X85760160Y-88881962D01*
X85972693Y-88963120D01*
X85977759Y-88964151D01*
X85977760Y-88964151D01*
X86076861Y-88984313D01*
X86195627Y-89008476D01*
X86323437Y-89013163D01*
X86417811Y-89016624D01*
X86417815Y-89016624D01*
X86422975Y-89016813D01*
X86428095Y-89016157D01*
X86428097Y-89016157D01*
X86643504Y-88988563D01*
X86643505Y-88988563D01*
X86648632Y-88987906D01*
X86731248Y-88963120D01*
X86861591Y-88924015D01*
X86861592Y-88924014D01*
X86866537Y-88922531D01*
X87070839Y-88822444D01*
X87075043Y-88819446D01*
X87075047Y-88819443D01*
X87251847Y-88693333D01*
X87251849Y-88693331D01*
X87256051Y-88690334D01*
X87417199Y-88529747D01*
X87471764Y-88453812D01*
X87546938Y-88349198D01*
X87546942Y-88349192D01*
X87549956Y-88344997D01*
X87650755Y-88141046D01*
X87716890Y-87923370D01*
X87730077Y-87823206D01*
X87746148Y-87701136D01*
X87746148Y-87701132D01*
X87746585Y-87697815D01*
X87748242Y-87630000D01*
X87729601Y-87403264D01*
X87674178Y-87182617D01*
X87620844Y-87059957D01*
X87585522Y-86978722D01*
X87585520Y-86978719D01*
X87583462Y-86973985D01*
X87459890Y-86782971D01*
X87306779Y-86614704D01*
X87291409Y-86602566D01*
X87250346Y-86544651D01*
X87243500Y-86503684D01*
X87243500Y-85580161D01*
X87263502Y-85512040D01*
X87280560Y-85490910D01*
X87289533Y-85481969D01*
X87417199Y-85354747D01*
X87471764Y-85278812D01*
X87546938Y-85174198D01*
X87546942Y-85174192D01*
X87549956Y-85169997D01*
X87650755Y-84966046D01*
X87716890Y-84748370D01*
X87730077Y-84648206D01*
X87746148Y-84526136D01*
X87746148Y-84526132D01*
X87746585Y-84522815D01*
X87748242Y-84455000D01*
X87729601Y-84228264D01*
X87674178Y-84007617D01*
X87592887Y-83820661D01*
X87585522Y-83803722D01*
X87585520Y-83803719D01*
X87583462Y-83798985D01*
X87495701Y-83663327D01*
X87462698Y-83612311D01*
X87462696Y-83612308D01*
X87459890Y-83607971D01*
X87306779Y-83439704D01*
X87128241Y-83298704D01*
X87090537Y-83277890D01*
X87043776Y-83252077D01*
X86929072Y-83188757D01*
X86924203Y-83187033D01*
X86924199Y-83187031D01*
X86719496Y-83114541D01*
X86719492Y-83114540D01*
X86714621Y-83112815D01*
X86709528Y-83111908D01*
X86709525Y-83111907D01*
X86495734Y-83073825D01*
X86495728Y-83073824D01*
X86490645Y-83072919D01*
X86417196Y-83072022D01*
X86268331Y-83070203D01*
X86268329Y-83070203D01*
X86263161Y-83070140D01*
X86038278Y-83104552D01*
X85822035Y-83175231D01*
X85817447Y-83177619D01*
X85817443Y-83177621D01*
X85624828Y-83277890D01*
X85620239Y-83280279D01*
X85616106Y-83283382D01*
X85616103Y-83283384D01*
X85515849Y-83358657D01*
X85438310Y-83416875D01*
X85281133Y-83581351D01*
X85152931Y-83769289D01*
X85150758Y-83773971D01*
X85150756Y-83773974D01*
X85086802Y-83911753D01*
X85057145Y-83975643D01*
X84996348Y-84194869D01*
X84972172Y-84421082D01*
X84972469Y-84426234D01*
X84972469Y-84426238D01*
X84977845Y-84519463D01*
X84985268Y-84648206D01*
X84986405Y-84653252D01*
X84986406Y-84653258D01*
X85006686Y-84743244D01*
X85035283Y-84870141D01*
X85120875Y-85080927D01*
X85239744Y-85274904D01*
X85388698Y-85446861D01*
X85430986Y-85481969D01*
X85470620Y-85540873D01*
X85476500Y-85578913D01*
X85476500Y-86501908D01*
X85456498Y-86570029D01*
X85438029Y-86591606D01*
X85438310Y-86591875D01*
X85281133Y-86756351D01*
X85152931Y-86944289D01*
X85150758Y-86948971D01*
X85150756Y-86948974D01*
X85136948Y-86978722D01*
X85057145Y-87150643D01*
X84996348Y-87369869D01*
X84995799Y-87375006D01*
X84991407Y-87416106D01*
X84972172Y-87596082D01*
X71110340Y-87596082D01*
X71094115Y-87410629D01*
X71037120Y-87197924D01*
X70993585Y-87104562D01*
X70946382Y-87003334D01*
X70946379Y-87003329D01*
X70944056Y-86998347D01*
X70940899Y-86993838D01*
X70820908Y-86822473D01*
X70820906Y-86822470D01*
X70817749Y-86817962D01*
X70770405Y-86770618D01*
X70736379Y-86708306D01*
X70733500Y-86681523D01*
X70733500Y-79230161D01*
X70753502Y-79162040D01*
X70770560Y-79140910D01*
X70779533Y-79131969D01*
X70907199Y-79004747D01*
X70961764Y-78928812D01*
X71036938Y-78824198D01*
X71036942Y-78824192D01*
X71039956Y-78819997D01*
X71093827Y-78710998D01*
X71138461Y-78620688D01*
X71138462Y-78620686D01*
X71140755Y-78616046D01*
X71206890Y-78398370D01*
X71207565Y-78393244D01*
X71236148Y-78176136D01*
X71236148Y-78176132D01*
X71236585Y-78172815D01*
X71238242Y-78105000D01*
X71219601Y-77878264D01*
X71164178Y-77657617D01*
X71081141Y-77466646D01*
X71075522Y-77453722D01*
X71075520Y-77453719D01*
X71073462Y-77448985D01*
X70993859Y-77325936D01*
X70952698Y-77262311D01*
X70952696Y-77262308D01*
X70949890Y-77257971D01*
X70870669Y-77170908D01*
X70800257Y-77093526D01*
X70800255Y-77093524D01*
X70796779Y-77089704D01*
X70781409Y-77077566D01*
X70740346Y-77019651D01*
X70733500Y-76978684D01*
X70733500Y-76200000D01*
X77476693Y-76200000D01*
X77495885Y-76419371D01*
X77552880Y-76632076D01*
X77596415Y-76725438D01*
X77643618Y-76826666D01*
X77643621Y-76826671D01*
X77645944Y-76831653D01*
X77649100Y-76836160D01*
X77649101Y-76836162D01*
X77766831Y-77004297D01*
X77772251Y-77012038D01*
X77927962Y-77167749D01*
X78108346Y-77294056D01*
X78307924Y-77387120D01*
X78520629Y-77444115D01*
X78740000Y-77463307D01*
X78959371Y-77444115D01*
X79172076Y-77387120D01*
X79371654Y-77294056D01*
X79552038Y-77167749D01*
X79707749Y-77012038D01*
X79713170Y-77004297D01*
X79830899Y-76836162D01*
X79830900Y-76836160D01*
X79834056Y-76831653D01*
X79836379Y-76826671D01*
X79836382Y-76826666D01*
X79883585Y-76725438D01*
X79927120Y-76632076D01*
X79984115Y-76419371D01*
X80003307Y-76200000D01*
X79984115Y-75980629D01*
X79927120Y-75767924D01*
X79851215Y-75605144D01*
X79836382Y-75573334D01*
X79836379Y-75573329D01*
X79834056Y-75568347D01*
X79820523Y-75549020D01*
X79710908Y-75392473D01*
X79710906Y-75392470D01*
X79707749Y-75387962D01*
X79552038Y-75232251D01*
X79538860Y-75223023D01*
X79472759Y-75176739D01*
X79371654Y-75105944D01*
X79172076Y-75012880D01*
X78959371Y-74955885D01*
X78740000Y-74936693D01*
X78520629Y-74955885D01*
X78307924Y-75012880D01*
X78214562Y-75056415D01*
X78113334Y-75103618D01*
X78113329Y-75103621D01*
X78108347Y-75105944D01*
X78103840Y-75109100D01*
X78103838Y-75109101D01*
X77932473Y-75229092D01*
X77932470Y-75229094D01*
X77927962Y-75232251D01*
X77772251Y-75387962D01*
X77769094Y-75392470D01*
X77769092Y-75392473D01*
X77659477Y-75549020D01*
X77645944Y-75568347D01*
X77643621Y-75573329D01*
X77643618Y-75573334D01*
X77628785Y-75605144D01*
X77552880Y-75767924D01*
X77495885Y-75980629D01*
X77476693Y-76200000D01*
X70733500Y-76200000D01*
X70733500Y-71120000D01*
X77476693Y-71120000D01*
X77495885Y-71339371D01*
X77552880Y-71552076D01*
X77596415Y-71645438D01*
X77643618Y-71746666D01*
X77643621Y-71746671D01*
X77645944Y-71751653D01*
X77649100Y-71756160D01*
X77649101Y-71756162D01*
X77766831Y-71924297D01*
X77772251Y-71932038D01*
X77927962Y-72087749D01*
X78108346Y-72214056D01*
X78307924Y-72307120D01*
X78520629Y-72364115D01*
X78740000Y-72383307D01*
X78959371Y-72364115D01*
X79172076Y-72307120D01*
X79371654Y-72214056D01*
X79552038Y-72087749D01*
X79707749Y-71932038D01*
X79713170Y-71924297D01*
X79830899Y-71756162D01*
X79830900Y-71756160D01*
X79834056Y-71751653D01*
X79836379Y-71746671D01*
X79836382Y-71746666D01*
X79883585Y-71645438D01*
X79927120Y-71552076D01*
X79984115Y-71339371D01*
X80003307Y-71120000D01*
X79984115Y-70900629D01*
X79927120Y-70687924D01*
X79851215Y-70525144D01*
X79836382Y-70493334D01*
X79836379Y-70493329D01*
X79834056Y-70488347D01*
X79820523Y-70469020D01*
X79710908Y-70312473D01*
X79710906Y-70312470D01*
X79707749Y-70307962D01*
X79552038Y-70152251D01*
X79538860Y-70143023D01*
X79472759Y-70096739D01*
X79371654Y-70025944D01*
X79172076Y-69932880D01*
X78959371Y-69875885D01*
X78740000Y-69856693D01*
X78520629Y-69875885D01*
X78307924Y-69932880D01*
X78214562Y-69976415D01*
X78113334Y-70023618D01*
X78113329Y-70023621D01*
X78108347Y-70025944D01*
X78103840Y-70029100D01*
X78103838Y-70029101D01*
X77932473Y-70149092D01*
X77932470Y-70149094D01*
X77927962Y-70152251D01*
X77772251Y-70307962D01*
X77769094Y-70312470D01*
X77769092Y-70312473D01*
X77659477Y-70469020D01*
X77645944Y-70488347D01*
X77643621Y-70493329D01*
X77643618Y-70493334D01*
X77628785Y-70525144D01*
X77552880Y-70687924D01*
X77495885Y-70900629D01*
X77476693Y-71120000D01*
X70733500Y-71120000D01*
X70733500Y-70340161D01*
X70753502Y-70272040D01*
X70770560Y-70250910D01*
X70779533Y-70241969D01*
X70907199Y-70114747D01*
X70957485Y-70044767D01*
X71036938Y-69934198D01*
X71036942Y-69934192D01*
X71039956Y-69929997D01*
X71140755Y-69726046D01*
X71206890Y-69508370D01*
X71220077Y-69408206D01*
X71236148Y-69286136D01*
X71236148Y-69286132D01*
X71236585Y-69282815D01*
X71238242Y-69215000D01*
X71219601Y-68988264D01*
X71164178Y-68767617D01*
X71110844Y-68644957D01*
X71075522Y-68563722D01*
X71075520Y-68563719D01*
X71073462Y-68558985D01*
X70949890Y-68367971D01*
X70796779Y-68199704D01*
X70618241Y-68058704D01*
X70608771Y-68053476D01*
X70533776Y-68012077D01*
X70419072Y-67948757D01*
X70414203Y-67947033D01*
X70414199Y-67947031D01*
X70209496Y-67874541D01*
X70209492Y-67874540D01*
X70204621Y-67872815D01*
X70199528Y-67871908D01*
X70199525Y-67871907D01*
X69985734Y-67833825D01*
X69985728Y-67833824D01*
X69980645Y-67832919D01*
X69907196Y-67832022D01*
X69758331Y-67830203D01*
X69758329Y-67830203D01*
X69753161Y-67830140D01*
X69528278Y-67864552D01*
X69312035Y-67935231D01*
X69307447Y-67937619D01*
X69307443Y-67937621D01*
X69154969Y-68016994D01*
X69110239Y-68040279D01*
X69106106Y-68043382D01*
X69106103Y-68043384D01*
X68932445Y-68173770D01*
X68928310Y-68176875D01*
X68771133Y-68341351D01*
X68642931Y-68529289D01*
X68640758Y-68533971D01*
X68640756Y-68533974D01*
X68556914Y-68714598D01*
X68547145Y-68735643D01*
X68486348Y-68954869D01*
X68485799Y-68960006D01*
X68463100Y-69172401D01*
X68462172Y-69181082D01*
X68462469Y-69186234D01*
X68462469Y-69186238D01*
X68473311Y-69374272D01*
X68475268Y-69408206D01*
X68476405Y-69413252D01*
X68476406Y-69413258D01*
X68476961Y-69415720D01*
X68525283Y-69630141D01*
X68610875Y-69840927D01*
X68729744Y-70034904D01*
X68733128Y-70038810D01*
X68733129Y-70038812D01*
X68767675Y-70078693D01*
X68878698Y-70206861D01*
X68920986Y-70241969D01*
X68960620Y-70300873D01*
X68966500Y-70338913D01*
X68966500Y-76976908D01*
X68946498Y-77045029D01*
X68928029Y-77066606D01*
X68928310Y-77066875D01*
X68831913Y-77167749D01*
X68771133Y-77231351D01*
X68642931Y-77419289D01*
X68640758Y-77423971D01*
X68640756Y-77423974D01*
X68586942Y-77539908D01*
X68547145Y-77625643D01*
X68486348Y-77844869D01*
X68485799Y-77850006D01*
X68474292Y-77957680D01*
X68462172Y-78071082D01*
X64718368Y-78071082D01*
X64765136Y-77976453D01*
X64765137Y-77976451D01*
X64767430Y-77971811D01*
X64832370Y-77758069D01*
X64861529Y-77536590D01*
X64863156Y-77470000D01*
X64844852Y-77247361D01*
X64790431Y-77030702D01*
X64701354Y-76825840D01*
X64580014Y-76638277D01*
X64429670Y-76473051D01*
X64425619Y-76469852D01*
X64425615Y-76469848D01*
X64258414Y-76337800D01*
X64258410Y-76337798D01*
X64254359Y-76334598D01*
X64213053Y-76311796D01*
X64163084Y-76261364D01*
X64148312Y-76191921D01*
X64173428Y-76125516D01*
X64200780Y-76098909D01*
X64244603Y-76067650D01*
X64379860Y-75971173D01*
X64538096Y-75813489D01*
X64597594Y-75730689D01*
X64665435Y-75636277D01*
X64668453Y-75632077D01*
X64689320Y-75589857D01*
X64765136Y-75436453D01*
X64765137Y-75436451D01*
X64767430Y-75431811D01*
X64832370Y-75218069D01*
X64861529Y-74996590D01*
X64862981Y-74937172D01*
X64863074Y-74933365D01*
X64863074Y-74933361D01*
X64863156Y-74930000D01*
X64844852Y-74707361D01*
X64790431Y-74490702D01*
X64701354Y-74285840D01*
X64580014Y-74098277D01*
X64429670Y-73933051D01*
X64425619Y-73929852D01*
X64425615Y-73929848D01*
X64258414Y-73797800D01*
X64258410Y-73797798D01*
X64254359Y-73794598D01*
X64213053Y-73771796D01*
X64163084Y-73721364D01*
X64148312Y-73651921D01*
X64173428Y-73585516D01*
X64200780Y-73558909D01*
X64244603Y-73527650D01*
X64379860Y-73431173D01*
X64538096Y-73273489D01*
X64597594Y-73190689D01*
X64665435Y-73096277D01*
X64668453Y-73092077D01*
X64689320Y-73049857D01*
X64765136Y-72896453D01*
X64765137Y-72896451D01*
X64767430Y-72891811D01*
X64832370Y-72678069D01*
X64861529Y-72456590D01*
X64863156Y-72390000D01*
X64844852Y-72167361D01*
X64790431Y-71950702D01*
X64701354Y-71745840D01*
X64580014Y-71558277D01*
X64429670Y-71393051D01*
X64425619Y-71389852D01*
X64425615Y-71389848D01*
X64258414Y-71257800D01*
X64258410Y-71257798D01*
X64254359Y-71254598D01*
X64213053Y-71231796D01*
X64163084Y-71181364D01*
X64148312Y-71111921D01*
X64173428Y-71045516D01*
X64200780Y-71018909D01*
X64244603Y-70987650D01*
X64379860Y-70891173D01*
X64538096Y-70733489D01*
X64597594Y-70650689D01*
X64665435Y-70556277D01*
X64668453Y-70552077D01*
X64689320Y-70509857D01*
X64765136Y-70356453D01*
X64765137Y-70356451D01*
X64767430Y-70351811D01*
X64832370Y-70138069D01*
X64861529Y-69916590D01*
X64862981Y-69857172D01*
X64863074Y-69853365D01*
X64863074Y-69853361D01*
X64863156Y-69850000D01*
X64844852Y-69627361D01*
X64790431Y-69410702D01*
X64701354Y-69205840D01*
X64580014Y-69018277D01*
X64429670Y-68853051D01*
X64425619Y-68849852D01*
X64425615Y-68849848D01*
X64258414Y-68717800D01*
X64258410Y-68717798D01*
X64254359Y-68714598D01*
X64213053Y-68691796D01*
X64163084Y-68641364D01*
X64148312Y-68571921D01*
X64173428Y-68505516D01*
X64200780Y-68478909D01*
X64244603Y-68447650D01*
X64379860Y-68351173D01*
X64385433Y-68345620D01*
X64534435Y-68197137D01*
X64538096Y-68193489D01*
X64552266Y-68173770D01*
X64665435Y-68016277D01*
X64668453Y-68012077D01*
X64689320Y-67969857D01*
X64765136Y-67816453D01*
X64765137Y-67816451D01*
X64767430Y-67811811D01*
X64832370Y-67598069D01*
X64861529Y-67376590D01*
X64863156Y-67310000D01*
X64844852Y-67087361D01*
X64790431Y-66870702D01*
X64701354Y-66665840D01*
X64580014Y-66478277D01*
X64429670Y-66313051D01*
X64425619Y-66309852D01*
X64425615Y-66309848D01*
X64258414Y-66177800D01*
X64258410Y-66177798D01*
X64254359Y-66174598D01*
X64213053Y-66151796D01*
X64163084Y-66101364D01*
X64148312Y-66031921D01*
X64173428Y-65965516D01*
X64200780Y-65938909D01*
X64244603Y-65907650D01*
X64379860Y-65811173D01*
X64385433Y-65805620D01*
X64534435Y-65657137D01*
X64538096Y-65653489D01*
X64542352Y-65647567D01*
X64665435Y-65476277D01*
X64668453Y-65472077D01*
X64689320Y-65429857D01*
X64765136Y-65276453D01*
X64765137Y-65276451D01*
X64767430Y-65271811D01*
X64832370Y-65058069D01*
X64861529Y-64836590D01*
X64863156Y-64770000D01*
X64844852Y-64547361D01*
X64790431Y-64330702D01*
X64701354Y-64125840D01*
X64580014Y-63938277D01*
X64429670Y-63773051D01*
X64425619Y-63769852D01*
X64425615Y-63769848D01*
X64258414Y-63637800D01*
X64258410Y-63637798D01*
X64254359Y-63634598D01*
X64213053Y-63611796D01*
X64163084Y-63561364D01*
X64148312Y-63491921D01*
X64173428Y-63425516D01*
X64200780Y-63398909D01*
X64244603Y-63367650D01*
X64379860Y-63271173D01*
X64538096Y-63113489D01*
X64541389Y-63108907D01*
X64665435Y-62936277D01*
X64668453Y-62932077D01*
X64689320Y-62889857D01*
X64765136Y-62736453D01*
X64765137Y-62736451D01*
X64767430Y-62731811D01*
X64832370Y-62518069D01*
X64861529Y-62296590D01*
X64863156Y-62230000D01*
X64844852Y-62007361D01*
X64790431Y-61790702D01*
X64701354Y-61585840D01*
X64580014Y-61398277D01*
X64429670Y-61233051D01*
X64425619Y-61229852D01*
X64425615Y-61229848D01*
X64258414Y-61097800D01*
X64258410Y-61097798D01*
X64254359Y-61094598D01*
X64213053Y-61071796D01*
X64163084Y-61021364D01*
X64150031Y-60960000D01*
X71761693Y-60960000D01*
X71780885Y-61179371D01*
X71837880Y-61392076D01*
X71881415Y-61485438D01*
X71928618Y-61586666D01*
X71928621Y-61586671D01*
X71930944Y-61591653D01*
X71934100Y-61596160D01*
X71934101Y-61596162D01*
X72051831Y-61764297D01*
X72057251Y-61772038D01*
X72212962Y-61927749D01*
X72393346Y-62054056D01*
X72592924Y-62147120D01*
X72805629Y-62204115D01*
X73025000Y-62223307D01*
X73244371Y-62204115D01*
X73457076Y-62147120D01*
X73656654Y-62054056D01*
X73837038Y-61927749D01*
X73992749Y-61772038D01*
X73998170Y-61764297D01*
X74080141Y-61647229D01*
X74135598Y-61602901D01*
X74183354Y-61593500D01*
X78353685Y-61593500D01*
X78421806Y-61613502D01*
X78442701Y-61630325D01*
X78446155Y-61633772D01*
X78451697Y-61639305D01*
X78457927Y-61643145D01*
X78457928Y-61643146D01*
X78577928Y-61717115D01*
X78602262Y-61732115D01*
X78655168Y-61749663D01*
X78713527Y-61790094D01*
X78740764Y-61855658D01*
X78741500Y-61869256D01*
X78741500Y-62521360D01*
X78721498Y-62589481D01*
X78681804Y-62628503D01*
X78608469Y-62673884D01*
X78603296Y-62679066D01*
X78490742Y-62791816D01*
X78490738Y-62791821D01*
X78485571Y-62796997D01*
X78481731Y-62803227D01*
X78481730Y-62803228D01*
X78405166Y-62927438D01*
X78394291Y-62945080D01*
X78339526Y-63110191D01*
X78329000Y-63212928D01*
X78329000Y-63787072D01*
X78329337Y-63790318D01*
X78329337Y-63790322D01*
X78338940Y-63882868D01*
X78339793Y-63891093D01*
X78394846Y-64056107D01*
X78486384Y-64204031D01*
X78491566Y-64209204D01*
X78604316Y-64321758D01*
X78604321Y-64321762D01*
X78609497Y-64326929D01*
X78615727Y-64330769D01*
X78615728Y-64330770D01*
X78623759Y-64335720D01*
X78757580Y-64418209D01*
X78922691Y-64472974D01*
X78929527Y-64473674D01*
X78929530Y-64473675D01*
X78976870Y-64478525D01*
X79025428Y-64483500D01*
X79724572Y-64483500D01*
X79727818Y-64483163D01*
X79727822Y-64483163D01*
X79821735Y-64473419D01*
X79821739Y-64473418D01*
X79828593Y-64472707D01*
X79835129Y-64470526D01*
X79835131Y-64470526D01*
X79967895Y-64426232D01*
X79993607Y-64417654D01*
X80141531Y-64326116D01*
X80148774Y-64318861D01*
X80150538Y-64317895D01*
X80152441Y-64316387D01*
X80152699Y-64316713D01*
X80211054Y-64284781D01*
X80281875Y-64289782D01*
X80326970Y-64318708D01*
X80329631Y-64321364D01*
X80341040Y-64330375D01*
X80476563Y-64413912D01*
X80489741Y-64420056D01*
X80641266Y-64470315D01*
X80654632Y-64473181D01*
X80747270Y-64482672D01*
X80753685Y-64483000D01*
X80827885Y-64483000D01*
X80843124Y-64478525D01*
X80844329Y-64477135D01*
X80846000Y-64469452D01*
X80846000Y-64464885D01*
X81354000Y-64464885D01*
X81358475Y-64480124D01*
X81359865Y-64481329D01*
X81367548Y-64483000D01*
X81446266Y-64483000D01*
X81452782Y-64482663D01*
X81546632Y-64472925D01*
X81560028Y-64470032D01*
X81642041Y-64442670D01*
X83512160Y-64442670D01*
X83517887Y-64450320D01*
X83689042Y-64555205D01*
X83697837Y-64559687D01*
X83907988Y-64646734D01*
X83917373Y-64649783D01*
X84138554Y-64702885D01*
X84148301Y-64704428D01*
X84375070Y-64722275D01*
X84384930Y-64722275D01*
X84611699Y-64704428D01*
X84621446Y-64702885D01*
X84842627Y-64649783D01*
X84852012Y-64646734D01*
X85062163Y-64559687D01*
X85070958Y-64555205D01*
X85238445Y-64452568D01*
X85247400Y-64442670D01*
X90012160Y-64442670D01*
X90017887Y-64450320D01*
X90189042Y-64555205D01*
X90197837Y-64559687D01*
X90407988Y-64646734D01*
X90417373Y-64649783D01*
X90638554Y-64702885D01*
X90648301Y-64704428D01*
X90875070Y-64722275D01*
X90884930Y-64722275D01*
X91111699Y-64704428D01*
X91121446Y-64702885D01*
X91342627Y-64649783D01*
X91352012Y-64646734D01*
X91562163Y-64559687D01*
X91570958Y-64555205D01*
X91738445Y-64452568D01*
X91747907Y-64442110D01*
X91744124Y-64433334D01*
X90892812Y-63582022D01*
X90878868Y-63574408D01*
X90877035Y-63574539D01*
X90870420Y-63578790D01*
X90018920Y-64430290D01*
X90012160Y-64442670D01*
X85247400Y-64442670D01*
X85247907Y-64442110D01*
X85244124Y-64433334D01*
X84392812Y-63582022D01*
X84378868Y-63574408D01*
X84377035Y-63574539D01*
X84370420Y-63578790D01*
X83518920Y-64430290D01*
X83512160Y-64442670D01*
X81642041Y-64442670D01*
X81711453Y-64419512D01*
X81724615Y-64413347D01*
X81859992Y-64329574D01*
X81871390Y-64320540D01*
X81983863Y-64207871D01*
X81992875Y-64196460D01*
X82076412Y-64060937D01*
X82082556Y-64047759D01*
X82132815Y-63896234D01*
X82135681Y-63882868D01*
X82145172Y-63790230D01*
X82145500Y-63783815D01*
X82145500Y-63772115D01*
X82141025Y-63756876D01*
X82139635Y-63755671D01*
X82131952Y-63754000D01*
X81372115Y-63754000D01*
X81356876Y-63758475D01*
X81355671Y-63759865D01*
X81354000Y-63767548D01*
X81354000Y-64464885D01*
X80846000Y-64464885D01*
X80846000Y-63227885D01*
X81354000Y-63227885D01*
X81358475Y-63243124D01*
X81359865Y-63244329D01*
X81367548Y-63246000D01*
X82127385Y-63246000D01*
X82142624Y-63241525D01*
X82143829Y-63240135D01*
X82145500Y-63232452D01*
X82145500Y-63216234D01*
X82145433Y-63214930D01*
X82867725Y-63214930D01*
X82885572Y-63441699D01*
X82887115Y-63451446D01*
X82940217Y-63672627D01*
X82943266Y-63682012D01*
X83030313Y-63892163D01*
X83034795Y-63900958D01*
X83137432Y-64068445D01*
X83147890Y-64077907D01*
X83156666Y-64074124D01*
X84007978Y-63222812D01*
X84014356Y-63211132D01*
X84744408Y-63211132D01*
X84744539Y-63212965D01*
X84748790Y-63219580D01*
X85600290Y-64071080D01*
X85612670Y-64077840D01*
X85620320Y-64072113D01*
X85725205Y-63900958D01*
X85729687Y-63892163D01*
X85816734Y-63682012D01*
X85819783Y-63672627D01*
X85872885Y-63451446D01*
X85874428Y-63441699D01*
X85892275Y-63214930D01*
X89367725Y-63214930D01*
X89385572Y-63441699D01*
X89387115Y-63451446D01*
X89440217Y-63672627D01*
X89443266Y-63682012D01*
X89530313Y-63892163D01*
X89534795Y-63900958D01*
X89637432Y-64068445D01*
X89647890Y-64077907D01*
X89656666Y-64074124D01*
X90507978Y-63222812D01*
X90514356Y-63211132D01*
X91244408Y-63211132D01*
X91244539Y-63212965D01*
X91248790Y-63219580D01*
X92100290Y-64071080D01*
X92112670Y-64077840D01*
X92120320Y-64072113D01*
X92225205Y-63900958D01*
X92229687Y-63892163D01*
X92316734Y-63682012D01*
X92319783Y-63672627D01*
X92372885Y-63451446D01*
X92374428Y-63441699D01*
X92392275Y-63214930D01*
X92392275Y-63205070D01*
X92374428Y-62978301D01*
X92372885Y-62968554D01*
X92319783Y-62747373D01*
X92316734Y-62737988D01*
X92229687Y-62527837D01*
X92225205Y-62519042D01*
X92122568Y-62351555D01*
X92112110Y-62342093D01*
X92103334Y-62345876D01*
X91252022Y-63197188D01*
X91244408Y-63211132D01*
X90514356Y-63211132D01*
X90515592Y-63208868D01*
X90515461Y-63207035D01*
X90511210Y-63200420D01*
X89659710Y-62348920D01*
X89647330Y-62342160D01*
X89639680Y-62347887D01*
X89534795Y-62519042D01*
X89530313Y-62527837D01*
X89443266Y-62737988D01*
X89440217Y-62747373D01*
X89387115Y-62968554D01*
X89385572Y-62978301D01*
X89367725Y-63205070D01*
X89367725Y-63214930D01*
X85892275Y-63214930D01*
X85892275Y-63205070D01*
X85874428Y-62978301D01*
X85872885Y-62968554D01*
X85819783Y-62747373D01*
X85816734Y-62737988D01*
X85729687Y-62527837D01*
X85725205Y-62519042D01*
X85622568Y-62351555D01*
X85612110Y-62342093D01*
X85603334Y-62345876D01*
X84752022Y-63197188D01*
X84744408Y-63211132D01*
X84014356Y-63211132D01*
X84015592Y-63208868D01*
X84015461Y-63207035D01*
X84011210Y-63200420D01*
X83159710Y-62348920D01*
X83147330Y-62342160D01*
X83139680Y-62347887D01*
X83034795Y-62519042D01*
X83030313Y-62527837D01*
X82943266Y-62737988D01*
X82940217Y-62747373D01*
X82887115Y-62968554D01*
X82885572Y-62978301D01*
X82867725Y-63205070D01*
X82867725Y-63214930D01*
X82145433Y-63214930D01*
X82145163Y-63209718D01*
X82135425Y-63115868D01*
X82132532Y-63102472D01*
X82082012Y-62951047D01*
X82075847Y-62937885D01*
X81992074Y-62802508D01*
X81983040Y-62791110D01*
X81870371Y-62678637D01*
X81858960Y-62669625D01*
X81723437Y-62586088D01*
X81710259Y-62579944D01*
X81558734Y-62529685D01*
X81545368Y-62526819D01*
X81452730Y-62517328D01*
X81446315Y-62517000D01*
X81372115Y-62517000D01*
X81356876Y-62521475D01*
X81355671Y-62522865D01*
X81354000Y-62530548D01*
X81354000Y-63227885D01*
X80846000Y-63227885D01*
X80846000Y-62535115D01*
X80841525Y-62519876D01*
X80840135Y-62518671D01*
X80832452Y-62517000D01*
X80753734Y-62517000D01*
X80747218Y-62517337D01*
X80653368Y-62527075D01*
X80639972Y-62529968D01*
X80488547Y-62580488D01*
X80475385Y-62586653D01*
X80340008Y-62670426D01*
X80328606Y-62679464D01*
X80326933Y-62681139D01*
X80325507Y-62681919D01*
X80322873Y-62684007D01*
X80322516Y-62683556D01*
X80264651Y-62715219D01*
X80193831Y-62710216D01*
X80148746Y-62681299D01*
X80145685Y-62678244D01*
X80140503Y-62673071D01*
X80068384Y-62628616D01*
X80020891Y-62575844D01*
X80008500Y-62521356D01*
X80008500Y-61977890D01*
X83512093Y-61977890D01*
X83515876Y-61986666D01*
X84367188Y-62837978D01*
X84381132Y-62845592D01*
X84382965Y-62845461D01*
X84389580Y-62841210D01*
X85241080Y-61989710D01*
X85247534Y-61977890D01*
X90012093Y-61977890D01*
X90015876Y-61986666D01*
X90867188Y-62837978D01*
X90881132Y-62845592D01*
X90882965Y-62845461D01*
X90889580Y-62841210D01*
X91741080Y-61989710D01*
X91747840Y-61977330D01*
X91742113Y-61969680D01*
X91570958Y-61864795D01*
X91562163Y-61860313D01*
X91352012Y-61773266D01*
X91342627Y-61770217D01*
X91121446Y-61717115D01*
X91111699Y-61715572D01*
X90884930Y-61697725D01*
X90875070Y-61697725D01*
X90648301Y-61715572D01*
X90638554Y-61717115D01*
X90417373Y-61770217D01*
X90407988Y-61773266D01*
X90197837Y-61860313D01*
X90189042Y-61864795D01*
X90021555Y-61967432D01*
X90012093Y-61977890D01*
X85247534Y-61977890D01*
X85247840Y-61977330D01*
X85242113Y-61969680D01*
X85070958Y-61864795D01*
X85062163Y-61860313D01*
X84852012Y-61773266D01*
X84842627Y-61770217D01*
X84621446Y-61717115D01*
X84611699Y-61715572D01*
X84384930Y-61697725D01*
X84375070Y-61697725D01*
X84148301Y-61715572D01*
X84138554Y-61717115D01*
X83917373Y-61770217D01*
X83907988Y-61773266D01*
X83697837Y-61860313D01*
X83689042Y-61864795D01*
X83521555Y-61967432D01*
X83512093Y-61977890D01*
X80008500Y-61977890D01*
X80008500Y-61869197D01*
X80028502Y-61801076D01*
X80082158Y-61754583D01*
X80094623Y-61749674D01*
X80142002Y-61733867D01*
X80142004Y-61733866D01*
X80148946Y-61731550D01*
X80203607Y-61697725D01*
X80293120Y-61642332D01*
X80299348Y-61638478D01*
X80424305Y-61513303D01*
X80492533Y-61402617D01*
X80513275Y-61368968D01*
X80513276Y-61368966D01*
X80517115Y-61362738D01*
X80560130Y-61233051D01*
X80570632Y-61201389D01*
X80570632Y-61201387D01*
X80572797Y-61194861D01*
X80583500Y-61090400D01*
X80583500Y-60289600D01*
X80575588Y-60213344D01*
X80573238Y-60190692D01*
X80573237Y-60190688D01*
X80572526Y-60183834D01*
X80560940Y-60149105D01*
X80518868Y-60023002D01*
X80516550Y-60016054D01*
X80423478Y-59865652D01*
X80336891Y-59779216D01*
X80302812Y-59716934D01*
X80307815Y-59646114D01*
X80336736Y-59601025D01*
X80419134Y-59518483D01*
X80424305Y-59513303D01*
X80492061Y-59403383D01*
X80544832Y-59355891D01*
X80599320Y-59343500D01*
X82928434Y-59343500D01*
X82996555Y-59363502D01*
X83035867Y-59403665D01*
X83153241Y-59595202D01*
X83153245Y-59595208D01*
X83155824Y-59599416D01*
X83310031Y-59779969D01*
X83490584Y-59934176D01*
X83494792Y-59936755D01*
X83494798Y-59936759D01*
X83688817Y-60055654D01*
X83693037Y-60058240D01*
X83697607Y-60060133D01*
X83697611Y-60060135D01*
X83900238Y-60144065D01*
X83912406Y-60149105D01*
X83992609Y-60168360D01*
X84138476Y-60203380D01*
X84138482Y-60203381D01*
X84143289Y-60204535D01*
X84380000Y-60223165D01*
X84616711Y-60204535D01*
X84621518Y-60203381D01*
X84621524Y-60203380D01*
X84767391Y-60168360D01*
X84847594Y-60149105D01*
X84859762Y-60144065D01*
X85062389Y-60060135D01*
X85062393Y-60060133D01*
X85066963Y-60058240D01*
X85071183Y-60055654D01*
X85265202Y-59936759D01*
X85265208Y-59936755D01*
X85269416Y-59934176D01*
X85449969Y-59779969D01*
X85604176Y-59599416D01*
X85606755Y-59595208D01*
X85606759Y-59595202D01*
X85724133Y-59403665D01*
X85776781Y-59356034D01*
X85831566Y-59343500D01*
X89428434Y-59343500D01*
X89496555Y-59363502D01*
X89535867Y-59403665D01*
X89653241Y-59595202D01*
X89653245Y-59595208D01*
X89655824Y-59599416D01*
X89810031Y-59779969D01*
X89990584Y-59934176D01*
X89994792Y-59936755D01*
X89994798Y-59936759D01*
X90188817Y-60055654D01*
X90193037Y-60058240D01*
X90197607Y-60060133D01*
X90197611Y-60060135D01*
X90400238Y-60144065D01*
X90412406Y-60149105D01*
X90492609Y-60168360D01*
X90638476Y-60203380D01*
X90638482Y-60203381D01*
X90643289Y-60204535D01*
X90880000Y-60223165D01*
X91116711Y-60204535D01*
X91121518Y-60203381D01*
X91121524Y-60203380D01*
X91267391Y-60168360D01*
X91347594Y-60149105D01*
X91359762Y-60144065D01*
X91562389Y-60060135D01*
X91562393Y-60060133D01*
X91566963Y-60058240D01*
X91571183Y-60055654D01*
X91765202Y-59936759D01*
X91765208Y-59936755D01*
X91769416Y-59934176D01*
X91949969Y-59779969D01*
X92104176Y-59599416D01*
X92106755Y-59595208D01*
X92106759Y-59595202D01*
X92224133Y-59403665D01*
X92276781Y-59356034D01*
X92331566Y-59343500D01*
X94025595Y-59343500D01*
X94093716Y-59363502D01*
X94132739Y-59403197D01*
X94172445Y-59467361D01*
X94201522Y-59514348D01*
X94286739Y-59599416D01*
X94288109Y-59600784D01*
X94322188Y-59663066D01*
X94317185Y-59733886D01*
X94288264Y-59778975D01*
X94249307Y-59818000D01*
X94200695Y-59866697D01*
X94196855Y-59872927D01*
X94196854Y-59872928D01*
X94150596Y-59947973D01*
X94107885Y-60017262D01*
X94105581Y-60024209D01*
X94065827Y-60144065D01*
X94052203Y-60185139D01*
X94041500Y-60289600D01*
X94041500Y-61090400D01*
X94041837Y-61093646D01*
X94041837Y-61093650D01*
X94041936Y-61094598D01*
X94052474Y-61196166D01*
X94108450Y-61363946D01*
X94201522Y-61514348D01*
X94206704Y-61519521D01*
X94326697Y-61639305D01*
X94325059Y-61640945D01*
X94359656Y-61689744D01*
X94366500Y-61730706D01*
X94366500Y-65546908D01*
X94346498Y-65615029D01*
X94328029Y-65636606D01*
X94328310Y-65636875D01*
X94171133Y-65801351D01*
X94042931Y-65989289D01*
X94040758Y-65993971D01*
X94040756Y-65993974D01*
X93956914Y-66174598D01*
X93947145Y-66195643D01*
X93886348Y-66414869D01*
X93885799Y-66420006D01*
X93863100Y-66632401D01*
X93862172Y-66641082D01*
X93862469Y-66646234D01*
X93862469Y-66646238D01*
X93873311Y-66834272D01*
X93875268Y-66868206D01*
X93876405Y-66873252D01*
X93876406Y-66873258D01*
X93876961Y-66875720D01*
X93925283Y-67090141D01*
X94010875Y-67300927D01*
X94129744Y-67494904D01*
X94133128Y-67498810D01*
X94133129Y-67498812D01*
X94167675Y-67538693D01*
X94278698Y-67666861D01*
X94453737Y-67812181D01*
X94458189Y-67814783D01*
X94458194Y-67814786D01*
X94637953Y-67919829D01*
X94650160Y-67926962D01*
X94862693Y-68008120D01*
X94867759Y-68009151D01*
X94867760Y-68009151D01*
X94966861Y-68029313D01*
X95085627Y-68053476D01*
X95213437Y-68058163D01*
X95307811Y-68061624D01*
X95307815Y-68061624D01*
X95312975Y-68061813D01*
X95318095Y-68061157D01*
X95318097Y-68061157D01*
X95533504Y-68033563D01*
X95533505Y-68033563D01*
X95538632Y-68032906D01*
X95594059Y-68016277D01*
X95751591Y-67969015D01*
X95751592Y-67969014D01*
X95756537Y-67967531D01*
X95960839Y-67867444D01*
X95965043Y-67864446D01*
X95965047Y-67864443D01*
X96141847Y-67738333D01*
X96141849Y-67738331D01*
X96146051Y-67735334D01*
X96307199Y-67574747D01*
X96357485Y-67504767D01*
X96436938Y-67394198D01*
X96436942Y-67394192D01*
X96439956Y-67389997D01*
X96540755Y-67186046D01*
X96606890Y-66968370D01*
X96620077Y-66868206D01*
X96636148Y-66746136D01*
X96636148Y-66746132D01*
X96636585Y-66742815D01*
X96638242Y-66675000D01*
X96619601Y-66448264D01*
X96564178Y-66227617D01*
X96510844Y-66104957D01*
X96475522Y-66023722D01*
X96475520Y-66023719D01*
X96473462Y-66018985D01*
X96349890Y-65827971D01*
X96196779Y-65659704D01*
X96181409Y-65647566D01*
X96140346Y-65589651D01*
X96133500Y-65548684D01*
X96133500Y-61730683D01*
X96153502Y-61662562D01*
X96174855Y-61638984D01*
X96174348Y-61638478D01*
X96182487Y-61630325D01*
X96299305Y-61513303D01*
X96367533Y-61402617D01*
X96388275Y-61368968D01*
X96388276Y-61368966D01*
X96392115Y-61362738D01*
X96435130Y-61233051D01*
X96445632Y-61201389D01*
X96445632Y-61201387D01*
X96447797Y-61194861D01*
X96458500Y-61090400D01*
X96458500Y-60289600D01*
X96450588Y-60213344D01*
X96448238Y-60190692D01*
X96448237Y-60190688D01*
X96447526Y-60183834D01*
X96435940Y-60149105D01*
X96393868Y-60023002D01*
X96391550Y-60016054D01*
X96298478Y-59865652D01*
X96211891Y-59779216D01*
X96177812Y-59716934D01*
X96182815Y-59646114D01*
X96211736Y-59601025D01*
X96294134Y-59518483D01*
X96299305Y-59513303D01*
X96330718Y-59462342D01*
X96388275Y-59368968D01*
X96388276Y-59368966D01*
X96392115Y-59362738D01*
X96427611Y-59255720D01*
X96445632Y-59201389D01*
X96445632Y-59201387D01*
X96447797Y-59194861D01*
X96458500Y-59090400D01*
X96458500Y-58289600D01*
X96447526Y-58183834D01*
X96411717Y-58076500D01*
X96393868Y-58023002D01*
X96391550Y-58016054D01*
X96298478Y-57865652D01*
X96173303Y-57740695D01*
X96167072Y-57736854D01*
X96028968Y-57651725D01*
X96028966Y-57651724D01*
X96022738Y-57647885D01*
X95862254Y-57594655D01*
X95861389Y-57594368D01*
X95861387Y-57594368D01*
X95854861Y-57592203D01*
X95848025Y-57591503D01*
X95848022Y-57591502D01*
X95804969Y-57587091D01*
X95750400Y-57581500D01*
X94749600Y-57581500D01*
X94746354Y-57581837D01*
X94746350Y-57581837D01*
X94650692Y-57591762D01*
X94650688Y-57591763D01*
X94643834Y-57592474D01*
X94637298Y-57594655D01*
X94637296Y-57594655D01*
X94510904Y-57636823D01*
X94476054Y-57648450D01*
X94325652Y-57741522D01*
X94200695Y-57866697D01*
X94196855Y-57872927D01*
X94196854Y-57872928D01*
X94108283Y-58016616D01*
X94055510Y-58064109D01*
X94001023Y-58076500D01*
X92331566Y-58076500D01*
X92263445Y-58056498D01*
X92224133Y-58016335D01*
X92106759Y-57824798D01*
X92106755Y-57824792D01*
X92104176Y-57820584D01*
X91949969Y-57640031D01*
X91769416Y-57485824D01*
X91765208Y-57483245D01*
X91765202Y-57483241D01*
X91571183Y-57364346D01*
X91566963Y-57361760D01*
X91562393Y-57359867D01*
X91562389Y-57359865D01*
X91352167Y-57272789D01*
X91352165Y-57272788D01*
X91347594Y-57270895D01*
X91267391Y-57251640D01*
X91121524Y-57216620D01*
X91121518Y-57216619D01*
X91116711Y-57215465D01*
X90880000Y-57196835D01*
X90643289Y-57215465D01*
X90638482Y-57216619D01*
X90638476Y-57216620D01*
X90492609Y-57251640D01*
X90412406Y-57270895D01*
X90407835Y-57272788D01*
X90407833Y-57272789D01*
X90197611Y-57359865D01*
X90197607Y-57359867D01*
X90193037Y-57361760D01*
X90188817Y-57364346D01*
X89994798Y-57483241D01*
X89994792Y-57483245D01*
X89990584Y-57485824D01*
X89810031Y-57640031D01*
X89655824Y-57820584D01*
X89653245Y-57824792D01*
X89653241Y-57824798D01*
X89535867Y-58016335D01*
X89483219Y-58063966D01*
X89428434Y-58076500D01*
X85831566Y-58076500D01*
X85763445Y-58056498D01*
X85724133Y-58016335D01*
X85606759Y-57824798D01*
X85606755Y-57824792D01*
X85604176Y-57820584D01*
X85449969Y-57640031D01*
X85269416Y-57485824D01*
X85265208Y-57483245D01*
X85265202Y-57483241D01*
X85071183Y-57364346D01*
X85066963Y-57361760D01*
X85062393Y-57359867D01*
X85062389Y-57359865D01*
X84852167Y-57272789D01*
X84852165Y-57272788D01*
X84847594Y-57270895D01*
X84767391Y-57251640D01*
X84621524Y-57216620D01*
X84621518Y-57216619D01*
X84616711Y-57215465D01*
X84380000Y-57196835D01*
X84143289Y-57215465D01*
X84138482Y-57216619D01*
X84138476Y-57216620D01*
X83992609Y-57251640D01*
X83912406Y-57270895D01*
X83907835Y-57272788D01*
X83907833Y-57272789D01*
X83697611Y-57359865D01*
X83697607Y-57359867D01*
X83693037Y-57361760D01*
X83688817Y-57364346D01*
X83494798Y-57483241D01*
X83494792Y-57483245D01*
X83490584Y-57485824D01*
X83310031Y-57640031D01*
X83155824Y-57820584D01*
X83153245Y-57824792D01*
X83153241Y-57824798D01*
X83035867Y-58016335D01*
X82983219Y-58063966D01*
X82928434Y-58076500D01*
X80624045Y-58076500D01*
X80555924Y-58056498D01*
X80519132Y-58014456D01*
X80516550Y-58016054D01*
X80427332Y-57871880D01*
X80423478Y-57865652D01*
X80298303Y-57740695D01*
X80292072Y-57736854D01*
X80153968Y-57651725D01*
X80153966Y-57651724D01*
X80147738Y-57647885D01*
X79987254Y-57594655D01*
X79986389Y-57594368D01*
X79986387Y-57594368D01*
X79979861Y-57592203D01*
X79973025Y-57591503D01*
X79973022Y-57591502D01*
X79929969Y-57587091D01*
X79875400Y-57581500D01*
X78874600Y-57581500D01*
X78871354Y-57581837D01*
X78871350Y-57581837D01*
X78775692Y-57591762D01*
X78775688Y-57591763D01*
X78768834Y-57592474D01*
X78762298Y-57594655D01*
X78762296Y-57594655D01*
X78635904Y-57636823D01*
X78601054Y-57648450D01*
X78450652Y-57741522D01*
X78325695Y-57866697D01*
X78232885Y-58017262D01*
X78177203Y-58185139D01*
X78166500Y-58289600D01*
X78166500Y-59090400D01*
X78177474Y-59196166D01*
X78179655Y-59202702D01*
X78179655Y-59202704D01*
X78195669Y-59250702D01*
X78233450Y-59363946D01*
X78326522Y-59514348D01*
X78411739Y-59599416D01*
X78413109Y-59600784D01*
X78447188Y-59663066D01*
X78442185Y-59733886D01*
X78413264Y-59778975D01*
X78374307Y-59818000D01*
X78325695Y-59866697D01*
X78321855Y-59872927D01*
X78321854Y-59872928D01*
X78275596Y-59947973D01*
X78232885Y-60017262D01*
X78230581Y-60024209D01*
X78190827Y-60144065D01*
X78177203Y-60185139D01*
X78176503Y-60191975D01*
X78176502Y-60191978D01*
X78174313Y-60213344D01*
X78147471Y-60279071D01*
X78089356Y-60319852D01*
X78048969Y-60326500D01*
X74183354Y-60326500D01*
X74115233Y-60306498D01*
X74080141Y-60272771D01*
X73995908Y-60152473D01*
X73995906Y-60152470D01*
X73992749Y-60147962D01*
X73837038Y-59992251D01*
X73823860Y-59983023D01*
X73749513Y-59930965D01*
X73656654Y-59865944D01*
X73457076Y-59772880D01*
X73244371Y-59715885D01*
X73025000Y-59696693D01*
X72805629Y-59715885D01*
X72592924Y-59772880D01*
X72499562Y-59816415D01*
X72398334Y-59863618D01*
X72398329Y-59863621D01*
X72393347Y-59865944D01*
X72388840Y-59869100D01*
X72388838Y-59869101D01*
X72217473Y-59989092D01*
X72217470Y-59989094D01*
X72212962Y-59992251D01*
X72057251Y-60147962D01*
X72054094Y-60152470D01*
X72054092Y-60152473D01*
X71946243Y-60306498D01*
X71930944Y-60328347D01*
X71928621Y-60333329D01*
X71928618Y-60333334D01*
X71899268Y-60396277D01*
X71837880Y-60527924D01*
X71780885Y-60740629D01*
X71761693Y-60960000D01*
X64150031Y-60960000D01*
X64148312Y-60951921D01*
X64173428Y-60885516D01*
X64200780Y-60858909D01*
X64244603Y-60827650D01*
X64379860Y-60731173D01*
X64538096Y-60573489D01*
X64668453Y-60392077D01*
X64681995Y-60364678D01*
X64765136Y-60196453D01*
X64765137Y-60196451D01*
X64767430Y-60191811D01*
X64832370Y-59978069D01*
X64861529Y-59756590D01*
X64861897Y-59741522D01*
X64863074Y-59693365D01*
X64863074Y-59693361D01*
X64863156Y-59690000D01*
X64844852Y-59467361D01*
X64790431Y-59250702D01*
X64701354Y-59045840D01*
X64580014Y-58858277D01*
X64429670Y-58693051D01*
X64425619Y-58689852D01*
X64425615Y-58689848D01*
X64258414Y-58557800D01*
X64258410Y-58557798D01*
X64254359Y-58554598D01*
X64218028Y-58534542D01*
X64202136Y-58525769D01*
X64058789Y-58446638D01*
X64053920Y-58444914D01*
X64053916Y-58444912D01*
X63853087Y-58373795D01*
X63853083Y-58373794D01*
X63848212Y-58372069D01*
X63843119Y-58371162D01*
X63843116Y-58371161D01*
X63633373Y-58333800D01*
X63633367Y-58333799D01*
X63628284Y-58332894D01*
X63554452Y-58331992D01*
X63410081Y-58330228D01*
X63410079Y-58330228D01*
X63404911Y-58330165D01*
X63184091Y-58363955D01*
X62971756Y-58433357D01*
X62773607Y-58536507D01*
X62769474Y-58539610D01*
X62769471Y-58539612D01*
X62745247Y-58557800D01*
X62594965Y-58670635D01*
X62440629Y-58832138D01*
X62437715Y-58836410D01*
X62437714Y-58836411D01*
X62332898Y-58990066D01*
X62277987Y-59035069D01*
X62207462Y-59043240D01*
X62143715Y-59011986D01*
X62123018Y-58987502D01*
X62042426Y-58862926D01*
X62036136Y-58854757D01*
X61892806Y-58697240D01*
X61885273Y-58690215D01*
X61718139Y-58558222D01*
X61709552Y-58552517D01*
X61523117Y-58449599D01*
X61513705Y-58445369D01*
X61312959Y-58374280D01*
X61302988Y-58371646D01*
X61231837Y-58358972D01*
X61218540Y-58360432D01*
X61214000Y-58374989D01*
X61214000Y-59818000D01*
X61193998Y-59886121D01*
X61140342Y-59932614D01*
X61088000Y-59944000D01*
X59643225Y-59944000D01*
X59629694Y-59947973D01*
X59628257Y-59957966D01*
X59658565Y-60092446D01*
X59661645Y-60102275D01*
X59741770Y-60299603D01*
X59746413Y-60308794D01*
X59857694Y-60490388D01*
X59863777Y-60498699D01*
X60003213Y-60659667D01*
X60010580Y-60666883D01*
X60174434Y-60802916D01*
X60182881Y-60808831D01*
X60251969Y-60849203D01*
X60300693Y-60900842D01*
X60313764Y-60970625D01*
X60287033Y-61036396D01*
X60246584Y-61069752D01*
X60233607Y-61076507D01*
X60229474Y-61079610D01*
X60229471Y-61079612D01*
X60065528Y-61202704D01*
X60054965Y-61210635D01*
X60051393Y-61214373D01*
X59916251Y-61355791D01*
X59900629Y-61372138D01*
X59774743Y-61556680D01*
X59760824Y-61586666D01*
X59685159Y-61749674D01*
X59680688Y-61759305D01*
X59620989Y-61974570D01*
X59597251Y-62196695D01*
X59597548Y-62201848D01*
X59597548Y-62201851D01*
X59606028Y-62348920D01*
X59610110Y-62419715D01*
X59611247Y-62424761D01*
X59611248Y-62424767D01*
X59631119Y-62512939D01*
X59659222Y-62637639D01*
X59697461Y-62731811D01*
X59740571Y-62837978D01*
X59743266Y-62844616D01*
X59794019Y-62927438D01*
X59857291Y-63030688D01*
X59859987Y-63035088D01*
X60006250Y-63203938D01*
X60178126Y-63346632D01*
X60248595Y-63387811D01*
X60251445Y-63389476D01*
X60300169Y-63441114D01*
X60313240Y-63510897D01*
X60286509Y-63576669D01*
X60246055Y-63610027D01*
X60233607Y-63616507D01*
X60229474Y-63619610D01*
X60229471Y-63619612D01*
X60205247Y-63637800D01*
X60054965Y-63750635D01*
X60049001Y-63756876D01*
X59919718Y-63892163D01*
X59900629Y-63912138D01*
X59774743Y-64096680D01*
X59759003Y-64130590D01*
X59687430Y-64284781D01*
X59680688Y-64299305D01*
X59620989Y-64514570D01*
X59597251Y-64736695D01*
X59597548Y-64741848D01*
X59597548Y-64741851D01*
X59603011Y-64836590D01*
X59610110Y-64959715D01*
X59611247Y-64964761D01*
X59611248Y-64964767D01*
X59631119Y-65052939D01*
X59659222Y-65177639D01*
X59743266Y-65384616D01*
X59794019Y-65467438D01*
X59857291Y-65570688D01*
X59859987Y-65575088D01*
X60006250Y-65743938D01*
X60178126Y-65886632D01*
X60248595Y-65927811D01*
X60251445Y-65929476D01*
X60300169Y-65981114D01*
X60313240Y-66050897D01*
X60286509Y-66116669D01*
X60246055Y-66150027D01*
X60233607Y-66156507D01*
X60229474Y-66159610D01*
X60229471Y-66159612D01*
X60059100Y-66287530D01*
X60054965Y-66290635D01*
X59900629Y-66452138D01*
X59774743Y-66636680D01*
X59680688Y-66839305D01*
X59620989Y-67054570D01*
X59597251Y-67276695D01*
X59597548Y-67281848D01*
X59597548Y-67281851D01*
X59603784Y-67389997D01*
X59610110Y-67499715D01*
X59611247Y-67504761D01*
X59611248Y-67504767D01*
X59626073Y-67570547D01*
X59659222Y-67717639D01*
X59743266Y-67924616D01*
X59793307Y-68006275D01*
X59857291Y-68110688D01*
X59859987Y-68115088D01*
X60006250Y-68283938D01*
X60178126Y-68426632D01*
X60248595Y-68467811D01*
X60251445Y-68469476D01*
X60300169Y-68521114D01*
X60313240Y-68590897D01*
X60286509Y-68656669D01*
X60246055Y-68690027D01*
X60233607Y-68696507D01*
X60229474Y-68699610D01*
X60229471Y-68699612D01*
X60059100Y-68827530D01*
X60054965Y-68830635D01*
X59900629Y-68992138D01*
X59774743Y-69176680D01*
X59680688Y-69379305D01*
X59620989Y-69594570D01*
X59597251Y-69816695D01*
X59597548Y-69821848D01*
X59597548Y-69821851D01*
X59603784Y-69929997D01*
X59610110Y-70039715D01*
X59611247Y-70044761D01*
X59611248Y-70044767D01*
X59626073Y-70110547D01*
X59659222Y-70257639D01*
X59743266Y-70464616D01*
X59794019Y-70547438D01*
X59857291Y-70650688D01*
X59859987Y-70655088D01*
X60006250Y-70823938D01*
X60178126Y-70966632D01*
X60248595Y-71007811D01*
X60251445Y-71009476D01*
X60300169Y-71061114D01*
X60313240Y-71130897D01*
X60286509Y-71196669D01*
X60246055Y-71230027D01*
X60233607Y-71236507D01*
X60229474Y-71239610D01*
X60229471Y-71239612D01*
X60059100Y-71367530D01*
X60054965Y-71370635D01*
X59900629Y-71532138D01*
X59774743Y-71716680D01*
X59680688Y-71919305D01*
X59620989Y-72134570D01*
X59597251Y-72356695D01*
X59597548Y-72361848D01*
X59597548Y-72361851D01*
X59603011Y-72456590D01*
X59610110Y-72579715D01*
X59611247Y-72584761D01*
X59611248Y-72584767D01*
X59631119Y-72672939D01*
X59659222Y-72797639D01*
X59743266Y-73004616D01*
X59794019Y-73087438D01*
X59857291Y-73190688D01*
X59859987Y-73195088D01*
X60006250Y-73363938D01*
X60178126Y-73506632D01*
X60248595Y-73547811D01*
X60251445Y-73549476D01*
X60300169Y-73601114D01*
X60313240Y-73670897D01*
X60286509Y-73736669D01*
X60246055Y-73770027D01*
X60233607Y-73776507D01*
X60229474Y-73779610D01*
X60229471Y-73779612D01*
X60205247Y-73797800D01*
X60054965Y-73910635D01*
X59900629Y-74072138D01*
X59774743Y-74256680D01*
X59680688Y-74459305D01*
X59620989Y-74674570D01*
X59597251Y-74896695D01*
X59597548Y-74901848D01*
X59597548Y-74901851D01*
X59603011Y-74996590D01*
X59610110Y-75119715D01*
X59611247Y-75124761D01*
X59611248Y-75124767D01*
X59631119Y-75212939D01*
X59659222Y-75337639D01*
X59743266Y-75544616D01*
X59794019Y-75627438D01*
X59857291Y-75730688D01*
X59859987Y-75735088D01*
X60006250Y-75903938D01*
X60178126Y-76046632D01*
X60248595Y-76087811D01*
X60251445Y-76089476D01*
X60300169Y-76141114D01*
X60313240Y-76210897D01*
X60286509Y-76276669D01*
X60246055Y-76310027D01*
X60233607Y-76316507D01*
X60229474Y-76319610D01*
X60229471Y-76319612D01*
X60059100Y-76447530D01*
X60054965Y-76450635D01*
X59900629Y-76612138D01*
X59774743Y-76796680D01*
X59680688Y-76999305D01*
X59620989Y-77214570D01*
X59597251Y-77436695D01*
X59597548Y-77441848D01*
X59597548Y-77441851D01*
X59603011Y-77536590D01*
X59610110Y-77659715D01*
X59611247Y-77664761D01*
X59611248Y-77664767D01*
X59631119Y-77752939D01*
X59659222Y-77877639D01*
X59697461Y-77971811D01*
X59735687Y-78065950D01*
X59743266Y-78084616D01*
X59794019Y-78167438D01*
X59857291Y-78270688D01*
X59859987Y-78275088D01*
X60006250Y-78443938D01*
X60178126Y-78586632D01*
X60219990Y-78611095D01*
X60251445Y-78629476D01*
X60300169Y-78681114D01*
X60313240Y-78750897D01*
X60286509Y-78816669D01*
X60246055Y-78850027D01*
X60233607Y-78856507D01*
X60229474Y-78859610D01*
X60229471Y-78859612D01*
X60059100Y-78987530D01*
X60054965Y-78990635D01*
X59900629Y-79152138D01*
X59774743Y-79336680D01*
X59680688Y-79539305D01*
X59620989Y-79754570D01*
X59597251Y-79976695D01*
X58928500Y-79976695D01*
X58928500Y-59424183D01*
X59624389Y-59424183D01*
X59625912Y-59432607D01*
X59638292Y-59436000D01*
X60687885Y-59436000D01*
X60703124Y-59431525D01*
X60704329Y-59430135D01*
X60706000Y-59422452D01*
X60706000Y-58373102D01*
X60702082Y-58359758D01*
X60687806Y-58357771D01*
X60649324Y-58363660D01*
X60639288Y-58366051D01*
X60436868Y-58432212D01*
X60427359Y-58436209D01*
X60238463Y-58534542D01*
X60229738Y-58540036D01*
X60059433Y-58667905D01*
X60051726Y-58674748D01*
X59904590Y-58828717D01*
X59898104Y-58836727D01*
X59778098Y-59012649D01*
X59773000Y-59021623D01*
X59683338Y-59214783D01*
X59679775Y-59224470D01*
X59624389Y-59424183D01*
X58928500Y-59424183D01*
X58928500Y-55880000D01*
X68586693Y-55880000D01*
X68605885Y-56099371D01*
X68662880Y-56312076D01*
X68665205Y-56317061D01*
X68753618Y-56506666D01*
X68753621Y-56506671D01*
X68755944Y-56511653D01*
X68882251Y-56692038D01*
X69037962Y-56847749D01*
X69218346Y-56974056D01*
X69417924Y-57067120D01*
X69630629Y-57124115D01*
X69850000Y-57143307D01*
X70069371Y-57124115D01*
X70282076Y-57067120D01*
X70481654Y-56974056D01*
X70662038Y-56847749D01*
X70817749Y-56692038D01*
X70944056Y-56511653D01*
X70946379Y-56506671D01*
X70946382Y-56506666D01*
X71034795Y-56317061D01*
X71037120Y-56312076D01*
X71094115Y-56099371D01*
X71113307Y-55880000D01*
X71094115Y-55660629D01*
X71037120Y-55447924D01*
X70993585Y-55354562D01*
X70946382Y-55253334D01*
X70946379Y-55253329D01*
X70944056Y-55248347D01*
X70817749Y-55067962D01*
X70662038Y-54912251D01*
X70481654Y-54785944D01*
X70282076Y-54692880D01*
X70069371Y-54635885D01*
X69850000Y-54616693D01*
X69630629Y-54635885D01*
X69417924Y-54692880D01*
X69324562Y-54736415D01*
X69223334Y-54783618D01*
X69223329Y-54783621D01*
X69218347Y-54785944D01*
X69213840Y-54789100D01*
X69213838Y-54789101D01*
X69042473Y-54909092D01*
X69042470Y-54909094D01*
X69037962Y-54912251D01*
X68882251Y-55067962D01*
X68755944Y-55248347D01*
X68753621Y-55253329D01*
X68753618Y-55253334D01*
X68706415Y-55354562D01*
X68662880Y-55447924D01*
X68605885Y-55660629D01*
X68586693Y-55880000D01*
X58928500Y-55880000D01*
X58928500Y-54572670D01*
X102637160Y-54572670D01*
X102642887Y-54580320D01*
X102814042Y-54685205D01*
X102822837Y-54689687D01*
X103032988Y-54776734D01*
X103042373Y-54779783D01*
X103263554Y-54832885D01*
X103273301Y-54834428D01*
X103500070Y-54852275D01*
X103509930Y-54852275D01*
X103736699Y-54834428D01*
X103746446Y-54832885D01*
X103967627Y-54779783D01*
X103977012Y-54776734D01*
X104187163Y-54689687D01*
X104195958Y-54685205D01*
X104363445Y-54582568D01*
X104372907Y-54572110D01*
X104369124Y-54563334D01*
X103517812Y-53712022D01*
X103503868Y-53704408D01*
X103502035Y-53704539D01*
X103495420Y-53708790D01*
X102643920Y-54560290D01*
X102637160Y-54572670D01*
X58928500Y-54572670D01*
X58928500Y-53344930D01*
X101992725Y-53344930D01*
X102010572Y-53571699D01*
X102012115Y-53581446D01*
X102065217Y-53802627D01*
X102068266Y-53812012D01*
X102155313Y-54022163D01*
X102159795Y-54030958D01*
X102262432Y-54198445D01*
X102272890Y-54207907D01*
X102281666Y-54204124D01*
X103132978Y-53352812D01*
X103139356Y-53341132D01*
X103869408Y-53341132D01*
X103869539Y-53342965D01*
X103873790Y-53349580D01*
X104725290Y-54201080D01*
X104737670Y-54207840D01*
X104745320Y-54202113D01*
X104850205Y-54030958D01*
X104854687Y-54022163D01*
X104941734Y-53812012D01*
X104944783Y-53802627D01*
X104997885Y-53581446D01*
X104999428Y-53571699D01*
X105017275Y-53344930D01*
X105017275Y-53335070D01*
X104999428Y-53108301D01*
X104997885Y-53098554D01*
X104944783Y-52877373D01*
X104941734Y-52867988D01*
X104854687Y-52657837D01*
X104850205Y-52649042D01*
X104747568Y-52481555D01*
X104737110Y-52472093D01*
X104728334Y-52475876D01*
X103877022Y-53327188D01*
X103869408Y-53341132D01*
X103139356Y-53341132D01*
X103140592Y-53338868D01*
X103140461Y-53337035D01*
X103136210Y-53330420D01*
X102284710Y-52478920D01*
X102272330Y-52472160D01*
X102264680Y-52477887D01*
X102159795Y-52649042D01*
X102155313Y-52657837D01*
X102068266Y-52867988D01*
X102065217Y-52877373D01*
X102012115Y-53098554D01*
X102010572Y-53108301D01*
X101992725Y-53335070D01*
X101992725Y-53344930D01*
X58928500Y-53344930D01*
X58928500Y-52107890D01*
X102637093Y-52107890D01*
X102640876Y-52116666D01*
X103492188Y-52967978D01*
X103506132Y-52975592D01*
X103507965Y-52975461D01*
X103514580Y-52971210D01*
X104366080Y-52119710D01*
X104372840Y-52107330D01*
X104367113Y-52099680D01*
X104195958Y-51994795D01*
X104187163Y-51990313D01*
X103977012Y-51903266D01*
X103967627Y-51900217D01*
X103746446Y-51847115D01*
X103736699Y-51845572D01*
X103509930Y-51827725D01*
X103500070Y-51827725D01*
X103273301Y-51845572D01*
X103263554Y-51847115D01*
X103042373Y-51900217D01*
X103032988Y-51903266D01*
X102822837Y-51990313D01*
X102814042Y-51994795D01*
X102646555Y-52097432D01*
X102637093Y-52107890D01*
X58928500Y-52107890D01*
X58928500Y-49530000D01*
X68586693Y-49530000D01*
X68605885Y-49749371D01*
X68662880Y-49962076D01*
X68665205Y-49967061D01*
X68753618Y-50156666D01*
X68753621Y-50156671D01*
X68755944Y-50161653D01*
X68882251Y-50342038D01*
X69037962Y-50497749D01*
X69218346Y-50624056D01*
X69417924Y-50717120D01*
X69630629Y-50774115D01*
X69850000Y-50793307D01*
X70069371Y-50774115D01*
X70282076Y-50717120D01*
X70481654Y-50624056D01*
X70662038Y-50497749D01*
X70817749Y-50342038D01*
X70941712Y-50165000D01*
X79381693Y-50165000D01*
X79400885Y-50384371D01*
X79457880Y-50597076D01*
X79460205Y-50602061D01*
X79548618Y-50791666D01*
X79548621Y-50791671D01*
X79550944Y-50796653D01*
X79677251Y-50977038D01*
X79832962Y-51132749D01*
X80013346Y-51259056D01*
X80212924Y-51352120D01*
X80425629Y-51409115D01*
X80645000Y-51428307D01*
X80864371Y-51409115D01*
X81077076Y-51352120D01*
X81276654Y-51259056D01*
X81457038Y-51132749D01*
X81612749Y-50977038D01*
X81739056Y-50796653D01*
X81741379Y-50791671D01*
X81741382Y-50791666D01*
X81829795Y-50602061D01*
X81832120Y-50597076D01*
X81889115Y-50384371D01*
X81908307Y-50165000D01*
X81889115Y-49945629D01*
X81832120Y-49732924D01*
X81788585Y-49639562D01*
X81741382Y-49538334D01*
X81741379Y-49538329D01*
X81739056Y-49533347D01*
X81612749Y-49352962D01*
X81457038Y-49197251D01*
X81276654Y-49070944D01*
X81077076Y-48977880D01*
X80864371Y-48920885D01*
X80645000Y-48901693D01*
X80425629Y-48920885D01*
X80212924Y-48977880D01*
X80119562Y-49021415D01*
X80018334Y-49068618D01*
X80018329Y-49068621D01*
X80013347Y-49070944D01*
X80008840Y-49074100D01*
X80008838Y-49074101D01*
X79837473Y-49194092D01*
X79837470Y-49194094D01*
X79832962Y-49197251D01*
X79677251Y-49352962D01*
X79550944Y-49533347D01*
X79548621Y-49538329D01*
X79548618Y-49538334D01*
X79501415Y-49639562D01*
X79457880Y-49732924D01*
X79400885Y-49945629D01*
X79381693Y-50165000D01*
X70941712Y-50165000D01*
X70944056Y-50161653D01*
X70946379Y-50156671D01*
X70946382Y-50156666D01*
X71034795Y-49967061D01*
X71037120Y-49962076D01*
X71094115Y-49749371D01*
X71113307Y-49530000D01*
X71094115Y-49310629D01*
X71037120Y-49097924D01*
X70980479Y-48976457D01*
X70946382Y-48903334D01*
X70946379Y-48903329D01*
X70944056Y-48898347D01*
X70817749Y-48717962D01*
X70662038Y-48562251D01*
X70481654Y-48435944D01*
X70282076Y-48342880D01*
X70069371Y-48285885D01*
X69850000Y-48266693D01*
X69630629Y-48285885D01*
X69417924Y-48342880D01*
X69324562Y-48386415D01*
X69223334Y-48433618D01*
X69223329Y-48433621D01*
X69218347Y-48435944D01*
X69213840Y-48439100D01*
X69213838Y-48439101D01*
X69042473Y-48559092D01*
X69042470Y-48559094D01*
X69037962Y-48562251D01*
X68882251Y-48717962D01*
X68755944Y-48898347D01*
X68753621Y-48903329D01*
X68753618Y-48903334D01*
X68719521Y-48976457D01*
X68662880Y-49097924D01*
X68605885Y-49310629D01*
X68586693Y-49530000D01*
X58928500Y-49530000D01*
X58928500Y-43814500D01*
X58948502Y-43746379D01*
X59002158Y-43699886D01*
X59054500Y-43688500D01*
X113665500Y-43688500D01*
X113733621Y-43708502D01*
G37*
%TD.AperFunction*%
%TD*%
%TA.AperFunction,NonConductor*%
G36*
X62311751Y-60364678D02*
G01*
X62339579Y-60396511D01*
X62399987Y-60495088D01*
X62546250Y-60663938D01*
X62718126Y-60806632D01*
X62788595Y-60847811D01*
X62791445Y-60849476D01*
X62840169Y-60901114D01*
X62853240Y-60970897D01*
X62826509Y-61036669D01*
X62786055Y-61070027D01*
X62773607Y-61076507D01*
X62769474Y-61079610D01*
X62769471Y-61079612D01*
X62605528Y-61202704D01*
X62594965Y-61210635D01*
X62591393Y-61214373D01*
X62456251Y-61355791D01*
X62440629Y-61372138D01*
X62333201Y-61529621D01*
X62278293Y-61574621D01*
X62207768Y-61582792D01*
X62144021Y-61551538D01*
X62123324Y-61527054D01*
X62042822Y-61402617D01*
X62042820Y-61402614D01*
X62040014Y-61398277D01*
X61889670Y-61233051D01*
X61885619Y-61229852D01*
X61885615Y-61229848D01*
X61718414Y-61097800D01*
X61718410Y-61097798D01*
X61714359Y-61094598D01*
X61706755Y-61090400D01*
X61677259Y-61074118D01*
X61672569Y-61071529D01*
X61622598Y-61021097D01*
X61607826Y-60951654D01*
X61632942Y-60885248D01*
X61660294Y-60858641D01*
X61835328Y-60733792D01*
X61843200Y-60727139D01*
X61994052Y-60576812D01*
X62000730Y-60568965D01*
X62128022Y-60391819D01*
X62129279Y-60392722D01*
X62176373Y-60349362D01*
X62246311Y-60337145D01*
X62311751Y-60364678D01*
G37*
%TD.AperFunction*%
%TA.AperFunction,NonConductor*%
G36*
X62312026Y-62905144D02*
G01*
X62339875Y-62936994D01*
X62399987Y-63035088D01*
X62546250Y-63203938D01*
X62718126Y-63346632D01*
X62788595Y-63387811D01*
X62791445Y-63389476D01*
X62840169Y-63441114D01*
X62853240Y-63510897D01*
X62826509Y-63576669D01*
X62786055Y-63610027D01*
X62773607Y-63616507D01*
X62769474Y-63619610D01*
X62769471Y-63619612D01*
X62745247Y-63637800D01*
X62594965Y-63750635D01*
X62589001Y-63756876D01*
X62459718Y-63892163D01*
X62440629Y-63912138D01*
X62333201Y-64069621D01*
X62278293Y-64114621D01*
X62207768Y-64122792D01*
X62144021Y-64091538D01*
X62123324Y-64067054D01*
X62042822Y-63942617D01*
X62042820Y-63942614D01*
X62040014Y-63938277D01*
X61889670Y-63773051D01*
X61885619Y-63769852D01*
X61885615Y-63769848D01*
X61718414Y-63637800D01*
X61718410Y-63637798D01*
X61714359Y-63634598D01*
X61673053Y-63611796D01*
X61623084Y-63561364D01*
X61608312Y-63491921D01*
X61633428Y-63425516D01*
X61660780Y-63398909D01*
X61704603Y-63367650D01*
X61839860Y-63271173D01*
X61998096Y-63113489D01*
X62001389Y-63108907D01*
X62128453Y-62932077D01*
X62129776Y-62933028D01*
X62176645Y-62889857D01*
X62246580Y-62877625D01*
X62312026Y-62905144D01*
G37*
%TD.AperFunction*%
%TA.AperFunction,NonConductor*%
G36*
X62312026Y-65445144D02*
G01*
X62339875Y-65476994D01*
X62399987Y-65575088D01*
X62546250Y-65743938D01*
X62718126Y-65886632D01*
X62788595Y-65927811D01*
X62791445Y-65929476D01*
X62840169Y-65981114D01*
X62853240Y-66050897D01*
X62826509Y-66116669D01*
X62786055Y-66150027D01*
X62773607Y-66156507D01*
X62769474Y-66159610D01*
X62769471Y-66159612D01*
X62599100Y-66287530D01*
X62594965Y-66290635D01*
X62440629Y-66452138D01*
X62333201Y-66609621D01*
X62278293Y-66654621D01*
X62207768Y-66662792D01*
X62144021Y-66631538D01*
X62123324Y-66607054D01*
X62042822Y-66482617D01*
X62042820Y-66482614D01*
X62040014Y-66478277D01*
X61889670Y-66313051D01*
X61885619Y-66309852D01*
X61885615Y-66309848D01*
X61718414Y-66177800D01*
X61718410Y-66177798D01*
X61714359Y-66174598D01*
X61673053Y-66151796D01*
X61623084Y-66101364D01*
X61608312Y-66031921D01*
X61633428Y-65965516D01*
X61660780Y-65938909D01*
X61704603Y-65907650D01*
X61839860Y-65811173D01*
X61845433Y-65805620D01*
X61994435Y-65657137D01*
X61998096Y-65653489D01*
X62002352Y-65647567D01*
X62128453Y-65472077D01*
X62129776Y-65473028D01*
X62176645Y-65429857D01*
X62246580Y-65417625D01*
X62312026Y-65445144D01*
G37*
%TD.AperFunction*%
%TA.AperFunction,NonConductor*%
G36*
X62312026Y-67985144D02*
G01*
X62339875Y-68016994D01*
X62399987Y-68115088D01*
X62546250Y-68283938D01*
X62718126Y-68426632D01*
X62788595Y-68467811D01*
X62791445Y-68469476D01*
X62840169Y-68521114D01*
X62853240Y-68590897D01*
X62826509Y-68656669D01*
X62786055Y-68690027D01*
X62773607Y-68696507D01*
X62769474Y-68699610D01*
X62769471Y-68699612D01*
X62599100Y-68827530D01*
X62594965Y-68830635D01*
X62440629Y-68992138D01*
X62333201Y-69149621D01*
X62278293Y-69194621D01*
X62207768Y-69202792D01*
X62144021Y-69171538D01*
X62123324Y-69147054D01*
X62042822Y-69022617D01*
X62042820Y-69022614D01*
X62040014Y-69018277D01*
X61889670Y-68853051D01*
X61885619Y-68849852D01*
X61885615Y-68849848D01*
X61718414Y-68717800D01*
X61718410Y-68717798D01*
X61714359Y-68714598D01*
X61673053Y-68691796D01*
X61623084Y-68641364D01*
X61608312Y-68571921D01*
X61633428Y-68505516D01*
X61660780Y-68478909D01*
X61704603Y-68447650D01*
X61839860Y-68351173D01*
X61845433Y-68345620D01*
X61994435Y-68197137D01*
X61998096Y-68193489D01*
X62012266Y-68173770D01*
X62128453Y-68012077D01*
X62129776Y-68013028D01*
X62176645Y-67969857D01*
X62246580Y-67957625D01*
X62312026Y-67985144D01*
G37*
%TD.AperFunction*%
%TA.AperFunction,NonConductor*%
G36*
X62312026Y-70525144D02*
G01*
X62339875Y-70556994D01*
X62399987Y-70655088D01*
X62546250Y-70823938D01*
X62718126Y-70966632D01*
X62788595Y-71007811D01*
X62791445Y-71009476D01*
X62840169Y-71061114D01*
X62853240Y-71130897D01*
X62826509Y-71196669D01*
X62786055Y-71230027D01*
X62773607Y-71236507D01*
X62769474Y-71239610D01*
X62769471Y-71239612D01*
X62599100Y-71367530D01*
X62594965Y-71370635D01*
X62440629Y-71532138D01*
X62333201Y-71689621D01*
X62278293Y-71734621D01*
X62207768Y-71742792D01*
X62144021Y-71711538D01*
X62123324Y-71687054D01*
X62042822Y-71562617D01*
X62042820Y-71562614D01*
X62040014Y-71558277D01*
X61889670Y-71393051D01*
X61885619Y-71389852D01*
X61885615Y-71389848D01*
X61718414Y-71257800D01*
X61718410Y-71257798D01*
X61714359Y-71254598D01*
X61673053Y-71231796D01*
X61623084Y-71181364D01*
X61608312Y-71111921D01*
X61633428Y-71045516D01*
X61660780Y-71018909D01*
X61704603Y-70987650D01*
X61839860Y-70891173D01*
X61998096Y-70733489D01*
X62057594Y-70650689D01*
X62128453Y-70552077D01*
X62129776Y-70553028D01*
X62176645Y-70509857D01*
X62246580Y-70497625D01*
X62312026Y-70525144D01*
G37*
%TD.AperFunction*%
%TA.AperFunction,NonConductor*%
G36*
X62312026Y-73065144D02*
G01*
X62339875Y-73096994D01*
X62399987Y-73195088D01*
X62546250Y-73363938D01*
X62718126Y-73506632D01*
X62788595Y-73547811D01*
X62791445Y-73549476D01*
X62840169Y-73601114D01*
X62853240Y-73670897D01*
X62826509Y-73736669D01*
X62786055Y-73770027D01*
X62773607Y-73776507D01*
X62769474Y-73779610D01*
X62769471Y-73779612D01*
X62745247Y-73797800D01*
X62594965Y-73910635D01*
X62440629Y-74072138D01*
X62333201Y-74229621D01*
X62278293Y-74274621D01*
X62207768Y-74282792D01*
X62144021Y-74251538D01*
X62123324Y-74227054D01*
X62042822Y-74102617D01*
X62042820Y-74102614D01*
X62040014Y-74098277D01*
X61889670Y-73933051D01*
X61885619Y-73929852D01*
X61885615Y-73929848D01*
X61718414Y-73797800D01*
X61718410Y-73797798D01*
X61714359Y-73794598D01*
X61673053Y-73771796D01*
X61623084Y-73721364D01*
X61608312Y-73651921D01*
X61633428Y-73585516D01*
X61660780Y-73558909D01*
X61704603Y-73527650D01*
X61839860Y-73431173D01*
X61998096Y-73273489D01*
X62057594Y-73190689D01*
X62128453Y-73092077D01*
X62129776Y-73093028D01*
X62176645Y-73049857D01*
X62246580Y-73037625D01*
X62312026Y-73065144D01*
G37*
%TD.AperFunction*%
%TA.AperFunction,NonConductor*%
G36*
X62312026Y-75605144D02*
G01*
X62339875Y-75636994D01*
X62399987Y-75735088D01*
X62546250Y-75903938D01*
X62718126Y-76046632D01*
X62788595Y-76087811D01*
X62791445Y-76089476D01*
X62840169Y-76141114D01*
X62853240Y-76210897D01*
X62826509Y-76276669D01*
X62786055Y-76310027D01*
X62773607Y-76316507D01*
X62769474Y-76319610D01*
X62769471Y-76319612D01*
X62599100Y-76447530D01*
X62594965Y-76450635D01*
X62440629Y-76612138D01*
X62333201Y-76769621D01*
X62278293Y-76814621D01*
X62207768Y-76822792D01*
X62144021Y-76791538D01*
X62123324Y-76767054D01*
X62042822Y-76642617D01*
X62042820Y-76642614D01*
X62040014Y-76638277D01*
X61889670Y-76473051D01*
X61885619Y-76469852D01*
X61885615Y-76469848D01*
X61718414Y-76337800D01*
X61718410Y-76337798D01*
X61714359Y-76334598D01*
X61673053Y-76311796D01*
X61623084Y-76261364D01*
X61608312Y-76191921D01*
X61633428Y-76125516D01*
X61660780Y-76098909D01*
X61704603Y-76067650D01*
X61839860Y-75971173D01*
X61998096Y-75813489D01*
X62057594Y-75730689D01*
X62128453Y-75632077D01*
X62129776Y-75633028D01*
X62176645Y-75589857D01*
X62246580Y-75577625D01*
X62312026Y-75605144D01*
G37*
%TD.AperFunction*%
%TA.AperFunction,NonConductor*%
G36*
X62312026Y-78145144D02*
G01*
X62339875Y-78176994D01*
X62399987Y-78275088D01*
X62546250Y-78443938D01*
X62718126Y-78586632D01*
X62759990Y-78611095D01*
X62791445Y-78629476D01*
X62840169Y-78681114D01*
X62853240Y-78750897D01*
X62826509Y-78816669D01*
X62786055Y-78850027D01*
X62773607Y-78856507D01*
X62769474Y-78859610D01*
X62769471Y-78859612D01*
X62599100Y-78987530D01*
X62594965Y-78990635D01*
X62440629Y-79152138D01*
X62333201Y-79309621D01*
X62278293Y-79354621D01*
X62207768Y-79362792D01*
X62144021Y-79331538D01*
X62123324Y-79307054D01*
X62042822Y-79182617D01*
X62042820Y-79182614D01*
X62040014Y-79178277D01*
X61889670Y-79013051D01*
X61885619Y-79009852D01*
X61885615Y-79009848D01*
X61718414Y-78877800D01*
X61718410Y-78877798D01*
X61714359Y-78874598D01*
X61673053Y-78851796D01*
X61623084Y-78801364D01*
X61608312Y-78731921D01*
X61633428Y-78665516D01*
X61660780Y-78638909D01*
X61704603Y-78607650D01*
X61839860Y-78511173D01*
X61998096Y-78353489D01*
X62034191Y-78303258D01*
X62128453Y-78172077D01*
X62129776Y-78173028D01*
X62176645Y-78129857D01*
X62246580Y-78117625D01*
X62312026Y-78145144D01*
G37*
%TD.AperFunction*%
%TA.AperFunction,NonConductor*%
G36*
X62312026Y-80685144D02*
G01*
X62339875Y-80716994D01*
X62399987Y-80815088D01*
X62546250Y-80983938D01*
X62718126Y-81126632D01*
X62750764Y-81145704D01*
X62791445Y-81169476D01*
X62840169Y-81221114D01*
X62853240Y-81290897D01*
X62826509Y-81356669D01*
X62786055Y-81390027D01*
X62773607Y-81396507D01*
X62769474Y-81399610D01*
X62769471Y-81399612D01*
X62599100Y-81527530D01*
X62594965Y-81530635D01*
X62440629Y-81692138D01*
X62437718Y-81696406D01*
X62429335Y-81708695D01*
X62374423Y-81753698D01*
X62303898Y-81761868D01*
X62240151Y-81730613D01*
X62212980Y-81694893D01*
X62174786Y-81619934D01*
X62167636Y-81608923D01*
X62052515Y-81466762D01*
X62043238Y-81457485D01*
X61901077Y-81342364D01*
X61890063Y-81335212D01*
X61813507Y-81296205D01*
X61761891Y-81247458D01*
X61744825Y-81178543D01*
X61767725Y-81111341D01*
X61797540Y-81081360D01*
X61835654Y-81054174D01*
X61835661Y-81054168D01*
X61839860Y-81051173D01*
X61998096Y-80893489D01*
X62057594Y-80810689D01*
X62128453Y-80712077D01*
X62129776Y-80713028D01*
X62176645Y-80669857D01*
X62246580Y-80657625D01*
X62312026Y-80685144D01*
G37*
%TD.AperFunction*%
M02*
