%TF.GenerationSoftware,KiCad,Pcbnew,(6.0.7)*%
%TF.CreationDate,2022-10-05T11:52:24+02:00*%
%TF.ProjectId,STK3700_Expansion_board,53544b33-3730-4305-9f45-7870616e7369,rev?*%
%TF.SameCoordinates,Original*%
%TF.FileFunction,Legend,Top*%
%TF.FilePolarity,Positive*%
%FSLAX46Y46*%
G04 Gerber Fmt 4.6, Leading zero omitted, Abs format (unit mm)*
G04 Created by KiCad (PCBNEW (6.0.7)) date 2022-10-05 11:52:24*
%MOMM*%
%LPD*%
G01*
G04 APERTURE LIST*
%ADD10C,0.150000*%
%ADD11C,0.120000*%
G04 APERTURE END LIST*
D10*
%TO.C,U1*%
X83682380Y-74421904D02*
X84491904Y-74421904D01*
X84587142Y-74374285D01*
X84634761Y-74326666D01*
X84682380Y-74231428D01*
X84682380Y-74040952D01*
X84634761Y-73945714D01*
X84587142Y-73898095D01*
X84491904Y-73850476D01*
X83682380Y-73850476D01*
X84682380Y-72850476D02*
X84682380Y-73421904D01*
X84682380Y-73136190D02*
X83682380Y-73136190D01*
X83825238Y-73231428D01*
X83920476Y-73326666D01*
X83968095Y-73421904D01*
%TO.C,U2*%
X92038095Y-79772380D02*
X92038095Y-80581904D01*
X92085714Y-80677142D01*
X92133333Y-80724761D01*
X92228571Y-80772380D01*
X92419047Y-80772380D01*
X92514285Y-80724761D01*
X92561904Y-80677142D01*
X92609523Y-80581904D01*
X92609523Y-79772380D01*
X93038095Y-79867619D02*
X93085714Y-79820000D01*
X93180952Y-79772380D01*
X93419047Y-79772380D01*
X93514285Y-79820000D01*
X93561904Y-79867619D01*
X93609523Y-79962857D01*
X93609523Y-80058095D01*
X93561904Y-80200952D01*
X92990476Y-80772380D01*
X93609523Y-80772380D01*
%TO.C,TP1*%
X68588095Y-53684380D02*
X69159523Y-53684380D01*
X68873809Y-54684380D02*
X68873809Y-53684380D01*
X69492857Y-54684380D02*
X69492857Y-53684380D01*
X69873809Y-53684380D01*
X69969047Y-53732000D01*
X70016666Y-53779619D01*
X70064285Y-53874857D01*
X70064285Y-54017714D01*
X70016666Y-54112952D01*
X69969047Y-54160571D01*
X69873809Y-54208190D01*
X69492857Y-54208190D01*
X71016666Y-54684380D02*
X70445238Y-54684380D01*
X70730952Y-54684380D02*
X70730952Y-53684380D01*
X70635714Y-53827238D01*
X70540476Y-53922476D01*
X70445238Y-53970095D01*
X68611904Y-57082380D02*
X69230952Y-57082380D01*
X68897619Y-57463333D01*
X69040476Y-57463333D01*
X69135714Y-57510952D01*
X69183333Y-57558571D01*
X69230952Y-57653809D01*
X69230952Y-57891904D01*
X69183333Y-57987142D01*
X69135714Y-58034761D01*
X69040476Y-58082380D01*
X68754761Y-58082380D01*
X68659523Y-58034761D01*
X68611904Y-57987142D01*
X69516666Y-57082380D02*
X69850000Y-58082380D01*
X70183333Y-57082380D01*
X70421428Y-57082380D02*
X71040476Y-57082380D01*
X70707142Y-57463333D01*
X70850000Y-57463333D01*
X70945238Y-57510952D01*
X70992857Y-57558571D01*
X71040476Y-57653809D01*
X71040476Y-57891904D01*
X70992857Y-57987142D01*
X70945238Y-58034761D01*
X70850000Y-58082380D01*
X70564285Y-58082380D01*
X70469047Y-58034761D01*
X70421428Y-57987142D01*
%TO.C,TP2*%
X68588095Y-47334380D02*
X69159523Y-47334380D01*
X68873809Y-48334380D02*
X68873809Y-47334380D01*
X69492857Y-48334380D02*
X69492857Y-47334380D01*
X69873809Y-47334380D01*
X69969047Y-47382000D01*
X70016666Y-47429619D01*
X70064285Y-47524857D01*
X70064285Y-47667714D01*
X70016666Y-47762952D01*
X69969047Y-47810571D01*
X69873809Y-47858190D01*
X69492857Y-47858190D01*
X70445238Y-47429619D02*
X70492857Y-47382000D01*
X70588095Y-47334380D01*
X70826190Y-47334380D01*
X70921428Y-47382000D01*
X70969047Y-47429619D01*
X71016666Y-47524857D01*
X71016666Y-47620095D01*
X70969047Y-47762952D01*
X70397619Y-48334380D01*
X71016666Y-48334380D01*
%TO.C,TP3*%
X79383095Y-47969380D02*
X79954523Y-47969380D01*
X79668809Y-48969380D02*
X79668809Y-47969380D01*
X80287857Y-48969380D02*
X80287857Y-47969380D01*
X80668809Y-47969380D01*
X80764047Y-48017000D01*
X80811666Y-48064619D01*
X80859285Y-48159857D01*
X80859285Y-48302714D01*
X80811666Y-48397952D01*
X80764047Y-48445571D01*
X80668809Y-48493190D01*
X80287857Y-48493190D01*
X81192619Y-47969380D02*
X81811666Y-47969380D01*
X81478333Y-48350333D01*
X81621190Y-48350333D01*
X81716428Y-48397952D01*
X81764047Y-48445571D01*
X81811666Y-48540809D01*
X81811666Y-48778904D01*
X81764047Y-48874142D01*
X81716428Y-48921761D01*
X81621190Y-48969380D01*
X81335476Y-48969380D01*
X81240238Y-48921761D01*
X81192619Y-48874142D01*
%TO.C,TP4*%
X71763095Y-58764380D02*
X72334523Y-58764380D01*
X72048809Y-59764380D02*
X72048809Y-58764380D01*
X72667857Y-59764380D02*
X72667857Y-58764380D01*
X73048809Y-58764380D01*
X73144047Y-58812000D01*
X73191666Y-58859619D01*
X73239285Y-58954857D01*
X73239285Y-59097714D01*
X73191666Y-59192952D01*
X73144047Y-59240571D01*
X73048809Y-59288190D01*
X72667857Y-59288190D01*
X74096428Y-59097714D02*
X74096428Y-59764380D01*
X73858333Y-58716761D02*
X73620238Y-59431047D01*
X74239285Y-59431047D01*
%TO.C,TP6*%
X77478095Y-68924380D02*
X78049523Y-68924380D01*
X77763809Y-69924380D02*
X77763809Y-68924380D01*
X78382857Y-69924380D02*
X78382857Y-68924380D01*
X78763809Y-68924380D01*
X78859047Y-68972000D01*
X78906666Y-69019619D01*
X78954285Y-69114857D01*
X78954285Y-69257714D01*
X78906666Y-69352952D01*
X78859047Y-69400571D01*
X78763809Y-69448190D01*
X78382857Y-69448190D01*
X79811428Y-68924380D02*
X79620952Y-68924380D01*
X79525714Y-68972000D01*
X79478095Y-69019619D01*
X79382857Y-69162476D01*
X79335238Y-69352952D01*
X79335238Y-69733904D01*
X79382857Y-69829142D01*
X79430476Y-69876761D01*
X79525714Y-69924380D01*
X79716190Y-69924380D01*
X79811428Y-69876761D01*
X79859047Y-69829142D01*
X79906666Y-69733904D01*
X79906666Y-69495809D01*
X79859047Y-69400571D01*
X79811428Y-69352952D01*
X79716190Y-69305333D01*
X79525714Y-69305333D01*
X79430476Y-69352952D01*
X79382857Y-69400571D01*
X79335238Y-69495809D01*
%TO.C,TP7*%
X77478095Y-74004380D02*
X78049523Y-74004380D01*
X77763809Y-75004380D02*
X77763809Y-74004380D01*
X78382857Y-75004380D02*
X78382857Y-74004380D01*
X78763809Y-74004380D01*
X78859047Y-74052000D01*
X78906666Y-74099619D01*
X78954285Y-74194857D01*
X78954285Y-74337714D01*
X78906666Y-74432952D01*
X78859047Y-74480571D01*
X78763809Y-74528190D01*
X78382857Y-74528190D01*
X79287619Y-74004380D02*
X79954285Y-74004380D01*
X79525714Y-75004380D01*
%TO.C,TP8*%
X68588095Y-85434380D02*
X69159523Y-85434380D01*
X68873809Y-86434380D02*
X68873809Y-85434380D01*
X69492857Y-86434380D02*
X69492857Y-85434380D01*
X69873809Y-85434380D01*
X69969047Y-85482000D01*
X70016666Y-85529619D01*
X70064285Y-85624857D01*
X70064285Y-85767714D01*
X70016666Y-85862952D01*
X69969047Y-85910571D01*
X69873809Y-85958190D01*
X69492857Y-85958190D01*
X70635714Y-85862952D02*
X70540476Y-85815333D01*
X70492857Y-85767714D01*
X70445238Y-85672476D01*
X70445238Y-85624857D01*
X70492857Y-85529619D01*
X70540476Y-85482000D01*
X70635714Y-85434380D01*
X70826190Y-85434380D01*
X70921428Y-85482000D01*
X70969047Y-85529619D01*
X71016666Y-85624857D01*
X71016666Y-85672476D01*
X70969047Y-85767714D01*
X70921428Y-85815333D01*
X70826190Y-85862952D01*
X70635714Y-85862952D01*
X70540476Y-85910571D01*
X70492857Y-85958190D01*
X70445238Y-86053428D01*
X70445238Y-86243904D01*
X70492857Y-86339142D01*
X70540476Y-86386761D01*
X70635714Y-86434380D01*
X70826190Y-86434380D01*
X70921428Y-86386761D01*
X70969047Y-86339142D01*
X71016666Y-86243904D01*
X71016666Y-86053428D01*
X70969047Y-85958190D01*
X70921428Y-85910571D01*
X70826190Y-85862952D01*
%TO.C,TP5*%
X102243095Y-50794380D02*
X102814523Y-50794380D01*
X102528809Y-51794380D02*
X102528809Y-50794380D01*
X103147857Y-51794380D02*
X103147857Y-50794380D01*
X103528809Y-50794380D01*
X103624047Y-50842000D01*
X103671666Y-50889619D01*
X103719285Y-50984857D01*
X103719285Y-51127714D01*
X103671666Y-51222952D01*
X103624047Y-51270571D01*
X103528809Y-51318190D01*
X103147857Y-51318190D01*
X104624047Y-50794380D02*
X104147857Y-50794380D01*
X104100238Y-51270571D01*
X104147857Y-51222952D01*
X104243095Y-51175333D01*
X104481190Y-51175333D01*
X104576428Y-51222952D01*
X104624047Y-51270571D01*
X104671666Y-51365809D01*
X104671666Y-51603904D01*
X104624047Y-51699142D01*
X104576428Y-51746761D01*
X104481190Y-51794380D01*
X104243095Y-51794380D01*
X104147857Y-51746761D01*
X104100238Y-51699142D01*
%TO.C,TP9*%
X75573095Y-89529380D02*
X76144523Y-89529380D01*
X75858809Y-90529380D02*
X75858809Y-89529380D01*
X76477857Y-90529380D02*
X76477857Y-89529380D01*
X76858809Y-89529380D01*
X76954047Y-89577000D01*
X77001666Y-89624619D01*
X77049285Y-89719857D01*
X77049285Y-89862714D01*
X77001666Y-89957952D01*
X76954047Y-90005571D01*
X76858809Y-90053190D01*
X76477857Y-90053190D01*
X77525476Y-90529380D02*
X77715952Y-90529380D01*
X77811190Y-90481761D01*
X77858809Y-90434142D01*
X77954047Y-90291285D01*
X78001666Y-90100809D01*
X78001666Y-89719857D01*
X77954047Y-89624619D01*
X77906428Y-89577000D01*
X77811190Y-89529380D01*
X77620714Y-89529380D01*
X77525476Y-89577000D01*
X77477857Y-89624619D01*
X77430238Y-89719857D01*
X77430238Y-89957952D01*
X77477857Y-90053190D01*
X77525476Y-90100809D01*
X77620714Y-90148428D01*
X77811190Y-90148428D01*
X77906428Y-90100809D01*
X77954047Y-90053190D01*
X78001666Y-89957952D01*
%TO.C,SW1*%
X86296666Y-57114761D02*
X86439523Y-57162380D01*
X86677619Y-57162380D01*
X86772857Y-57114761D01*
X86820476Y-57067142D01*
X86868095Y-56971904D01*
X86868095Y-56876666D01*
X86820476Y-56781428D01*
X86772857Y-56733809D01*
X86677619Y-56686190D01*
X86487142Y-56638571D01*
X86391904Y-56590952D01*
X86344285Y-56543333D01*
X86296666Y-56448095D01*
X86296666Y-56352857D01*
X86344285Y-56257619D01*
X86391904Y-56210000D01*
X86487142Y-56162380D01*
X86725238Y-56162380D01*
X86868095Y-56210000D01*
X87201428Y-56162380D02*
X87439523Y-57162380D01*
X87630000Y-56448095D01*
X87820476Y-57162380D01*
X88058571Y-56162380D01*
X88963333Y-57162380D02*
X88391904Y-57162380D01*
X88677619Y-57162380D02*
X88677619Y-56162380D01*
X88582380Y-56305238D01*
X88487142Y-56400476D01*
X88391904Y-56448095D01*
%TO.C,R4*%
X75127380Y-70270666D02*
X74651190Y-70604000D01*
X75127380Y-70842095D02*
X74127380Y-70842095D01*
X74127380Y-70461142D01*
X74175000Y-70365904D01*
X74222619Y-70318285D01*
X74317857Y-70270666D01*
X74460714Y-70270666D01*
X74555952Y-70318285D01*
X74603571Y-70365904D01*
X74651190Y-70461142D01*
X74651190Y-70842095D01*
X74460714Y-69413523D02*
X75127380Y-69413523D01*
X74079761Y-69651619D02*
X74794047Y-69889714D01*
X74794047Y-69270666D01*
%TO.C,R5*%
X71827380Y-77366666D02*
X71351190Y-77700000D01*
X71827380Y-77938095D02*
X70827380Y-77938095D01*
X70827380Y-77557142D01*
X70875000Y-77461904D01*
X70922619Y-77414285D01*
X71017857Y-77366666D01*
X71160714Y-77366666D01*
X71255952Y-77414285D01*
X71303571Y-77461904D01*
X71351190Y-77557142D01*
X71351190Y-77938095D01*
X70827380Y-76461904D02*
X70827380Y-76938095D01*
X71303571Y-76985714D01*
X71255952Y-76938095D01*
X71208333Y-76842857D01*
X71208333Y-76604761D01*
X71255952Y-76509523D01*
X71303571Y-76461904D01*
X71398809Y-76414285D01*
X71636904Y-76414285D01*
X71732142Y-76461904D01*
X71779761Y-76509523D01*
X71827380Y-76604761D01*
X71827380Y-76842857D01*
X71779761Y-76938095D01*
X71732142Y-76985714D01*
%TO.C,R6*%
X66872380Y-89066666D02*
X66396190Y-89400000D01*
X66872380Y-89638095D02*
X65872380Y-89638095D01*
X65872380Y-89257142D01*
X65920000Y-89161904D01*
X65967619Y-89114285D01*
X66062857Y-89066666D01*
X66205714Y-89066666D01*
X66300952Y-89114285D01*
X66348571Y-89161904D01*
X66396190Y-89257142D01*
X66396190Y-89638095D01*
X65872380Y-88209523D02*
X65872380Y-88400000D01*
X65920000Y-88495238D01*
X65967619Y-88542857D01*
X66110476Y-88638095D01*
X66300952Y-88685714D01*
X66681904Y-88685714D01*
X66777142Y-88638095D01*
X66824761Y-88590476D01*
X66872380Y-88495238D01*
X66872380Y-88304761D01*
X66824761Y-88209523D01*
X66777142Y-88161904D01*
X66681904Y-88114285D01*
X66443809Y-88114285D01*
X66348571Y-88161904D01*
X66300952Y-88209523D01*
X66253333Y-88304761D01*
X66253333Y-88495238D01*
X66300952Y-88590476D01*
X66348571Y-88638095D01*
X66443809Y-88685714D01*
%TO.C,R1*%
X64207380Y-54776666D02*
X63731190Y-55110000D01*
X64207380Y-55348095D02*
X63207380Y-55348095D01*
X63207380Y-54967142D01*
X63255000Y-54871904D01*
X63302619Y-54824285D01*
X63397857Y-54776666D01*
X63540714Y-54776666D01*
X63635952Y-54824285D01*
X63683571Y-54871904D01*
X63731190Y-54967142D01*
X63731190Y-55348095D01*
X64207380Y-53824285D02*
X64207380Y-54395714D01*
X64207380Y-54110000D02*
X63207380Y-54110000D01*
X63350238Y-54205238D01*
X63445476Y-54300476D01*
X63493095Y-54395714D01*
%TO.C,R2*%
X64207380Y-48426666D02*
X63731190Y-48760000D01*
X64207380Y-48998095D02*
X63207380Y-48998095D01*
X63207380Y-48617142D01*
X63255000Y-48521904D01*
X63302619Y-48474285D01*
X63397857Y-48426666D01*
X63540714Y-48426666D01*
X63635952Y-48474285D01*
X63683571Y-48521904D01*
X63731190Y-48617142D01*
X63731190Y-48998095D01*
X63302619Y-48045714D02*
X63255000Y-47998095D01*
X63207380Y-47902857D01*
X63207380Y-47664761D01*
X63255000Y-47569523D01*
X63302619Y-47521904D01*
X63397857Y-47474285D01*
X63493095Y-47474285D01*
X63635952Y-47521904D01*
X64207380Y-48093333D01*
X64207380Y-47474285D01*
%TO.C,R3*%
X86828333Y-48967380D02*
X86495000Y-48491190D01*
X86256904Y-48967380D02*
X86256904Y-47967380D01*
X86637857Y-47967380D01*
X86733095Y-48015000D01*
X86780714Y-48062619D01*
X86828333Y-48157857D01*
X86828333Y-48300714D01*
X86780714Y-48395952D01*
X86733095Y-48443571D01*
X86637857Y-48491190D01*
X86256904Y-48491190D01*
X87161666Y-47967380D02*
X87780714Y-47967380D01*
X87447380Y-48348333D01*
X87590238Y-48348333D01*
X87685476Y-48395952D01*
X87733095Y-48443571D01*
X87780714Y-48538809D01*
X87780714Y-48776904D01*
X87733095Y-48872142D01*
X87685476Y-48919761D01*
X87590238Y-48967380D01*
X87304523Y-48967380D01*
X87209285Y-48919761D01*
X87161666Y-48872142D01*
%TO.C,J1*%
X60626666Y-54697380D02*
X60626666Y-55411666D01*
X60579047Y-55554523D01*
X60483809Y-55649761D01*
X60340952Y-55697380D01*
X60245714Y-55697380D01*
X61626666Y-55697380D02*
X61055238Y-55697380D01*
X61340952Y-55697380D02*
X61340952Y-54697380D01*
X61245714Y-54840238D01*
X61150476Y-54935476D01*
X61055238Y-54983095D01*
X63214285Y-84637619D02*
X63261904Y-84590000D01*
X63357142Y-84542380D01*
X63595238Y-84542380D01*
X63690476Y-84590000D01*
X63738095Y-84637619D01*
X63785714Y-84732857D01*
X63785714Y-84828095D01*
X63738095Y-84970952D01*
X63166666Y-85542380D01*
X63785714Y-85542380D01*
X61245714Y-85542380D02*
X60674285Y-85542380D01*
X60960000Y-85542380D02*
X60960000Y-84542380D01*
X60864761Y-84685238D01*
X60769523Y-84780476D01*
X60674285Y-84828095D01*
X60769523Y-57602380D02*
X60198095Y-57602380D01*
X60483809Y-57602380D02*
X60483809Y-56602380D01*
X60388571Y-56745238D01*
X60293333Y-56840476D01*
X60198095Y-56888095D01*
X61245714Y-57602380D02*
X61436190Y-57602380D01*
X61531428Y-57554761D01*
X61579047Y-57507142D01*
X61674285Y-57364285D01*
X61721904Y-57173809D01*
X61721904Y-56792857D01*
X61674285Y-56697619D01*
X61626666Y-56650000D01*
X61531428Y-56602380D01*
X61340952Y-56602380D01*
X61245714Y-56650000D01*
X61198095Y-56697619D01*
X61150476Y-56792857D01*
X61150476Y-57030952D01*
X61198095Y-57126190D01*
X61245714Y-57173809D01*
X61340952Y-57221428D01*
X61531428Y-57221428D01*
X61626666Y-57173809D01*
X61674285Y-57126190D01*
X61721904Y-57030952D01*
X62738095Y-56697619D02*
X62785714Y-56650000D01*
X62880952Y-56602380D01*
X63119047Y-56602380D01*
X63214285Y-56650000D01*
X63261904Y-56697619D01*
X63309523Y-56792857D01*
X63309523Y-56888095D01*
X63261904Y-57030952D01*
X62690476Y-57602380D01*
X63309523Y-57602380D01*
X63928571Y-56602380D02*
X64023809Y-56602380D01*
X64119047Y-56650000D01*
X64166666Y-56697619D01*
X64214285Y-56792857D01*
X64261904Y-56983333D01*
X64261904Y-57221428D01*
X64214285Y-57411904D01*
X64166666Y-57507142D01*
X64119047Y-57554761D01*
X64023809Y-57602380D01*
X63928571Y-57602380D01*
X63833333Y-57554761D01*
X63785714Y-57507142D01*
X63738095Y-57411904D01*
X63690476Y-57221428D01*
X63690476Y-56983333D01*
X63738095Y-56792857D01*
X63785714Y-56697619D01*
X63833333Y-56650000D01*
X63928571Y-56602380D01*
%TO.C,D4*%
X61491904Y-91512380D02*
X61491904Y-90512380D01*
X61730000Y-90512380D01*
X61872857Y-90560000D01*
X61968095Y-90655238D01*
X62015714Y-90750476D01*
X62063333Y-90940952D01*
X62063333Y-91083809D01*
X62015714Y-91274285D01*
X61968095Y-91369523D01*
X61872857Y-91464761D01*
X61730000Y-91512380D01*
X61491904Y-91512380D01*
X62920476Y-90845714D02*
X62920476Y-91512380D01*
X62682380Y-90464761D02*
X62444285Y-91179047D01*
X63063333Y-91179047D01*
%TO.C,D1*%
X61491904Y-50872380D02*
X61491904Y-49872380D01*
X61730000Y-49872380D01*
X61872857Y-49920000D01*
X61968095Y-50015238D01*
X62015714Y-50110476D01*
X62063333Y-50300952D01*
X62063333Y-50443809D01*
X62015714Y-50634285D01*
X61968095Y-50729523D01*
X61872857Y-50824761D01*
X61730000Y-50872380D01*
X61491904Y-50872380D01*
X63015714Y-50872380D02*
X62444285Y-50872380D01*
X62730000Y-50872380D02*
X62730000Y-49872380D01*
X62634761Y-50015238D01*
X62539523Y-50110476D01*
X62444285Y-50158095D01*
%TO.C,D2*%
X61491904Y-44522380D02*
X61491904Y-43522380D01*
X61730000Y-43522380D01*
X61872857Y-43570000D01*
X61968095Y-43665238D01*
X62015714Y-43760476D01*
X62063333Y-43950952D01*
X62063333Y-44093809D01*
X62015714Y-44284285D01*
X61968095Y-44379523D01*
X61872857Y-44474761D01*
X61730000Y-44522380D01*
X61491904Y-44522380D01*
X62444285Y-43617619D02*
X62491904Y-43570000D01*
X62587142Y-43522380D01*
X62825238Y-43522380D01*
X62920476Y-43570000D01*
X62968095Y-43617619D01*
X63015714Y-43712857D01*
X63015714Y-43808095D01*
X62968095Y-43950952D01*
X62396666Y-44522380D01*
X63015714Y-44522380D01*
%TO.C,D3*%
X86256904Y-45157380D02*
X86256904Y-44157380D01*
X86495000Y-44157380D01*
X86637857Y-44205000D01*
X86733095Y-44300238D01*
X86780714Y-44395476D01*
X86828333Y-44585952D01*
X86828333Y-44728809D01*
X86780714Y-44919285D01*
X86733095Y-45014523D01*
X86637857Y-45109761D01*
X86495000Y-45157380D01*
X86256904Y-45157380D01*
X87161666Y-44157380D02*
X87780714Y-44157380D01*
X87447380Y-44538333D01*
X87590238Y-44538333D01*
X87685476Y-44585952D01*
X87733095Y-44633571D01*
X87780714Y-44728809D01*
X87780714Y-44966904D01*
X87733095Y-45062142D01*
X87685476Y-45109761D01*
X87590238Y-45157380D01*
X87304523Y-45157380D01*
X87209285Y-45109761D01*
X87161666Y-45062142D01*
%TO.C,C2*%
X95767142Y-85256666D02*
X95814761Y-85304285D01*
X95862380Y-85447142D01*
X95862380Y-85542380D01*
X95814761Y-85685238D01*
X95719523Y-85780476D01*
X95624285Y-85828095D01*
X95433809Y-85875714D01*
X95290952Y-85875714D01*
X95100476Y-85828095D01*
X95005238Y-85780476D01*
X94910000Y-85685238D01*
X94862380Y-85542380D01*
X94862380Y-85447142D01*
X94910000Y-85304285D01*
X94957619Y-85256666D01*
X94957619Y-84875714D02*
X94910000Y-84828095D01*
X94862380Y-84732857D01*
X94862380Y-84494761D01*
X94910000Y-84399523D01*
X94957619Y-84351904D01*
X95052857Y-84304285D01*
X95148095Y-84304285D01*
X95290952Y-84351904D01*
X95862380Y-84923333D01*
X95862380Y-84304285D01*
%TO.C,C1*%
X86193333Y-68142142D02*
X86145714Y-68189761D01*
X86002857Y-68237380D01*
X85907619Y-68237380D01*
X85764761Y-68189761D01*
X85669523Y-68094523D01*
X85621904Y-67999285D01*
X85574285Y-67808809D01*
X85574285Y-67665952D01*
X85621904Y-67475476D01*
X85669523Y-67380238D01*
X85764761Y-67285000D01*
X85907619Y-67237380D01*
X86002857Y-67237380D01*
X86145714Y-67285000D01*
X86193333Y-67332619D01*
X87145714Y-68237380D02*
X86574285Y-68237380D01*
X86860000Y-68237380D02*
X86860000Y-67237380D01*
X86764761Y-67380238D01*
X86669523Y-67475476D01*
X86574285Y-67523095D01*
D11*
%TO.C,U1*%
X85070000Y-73660000D02*
X85070000Y-77110000D01*
X90190000Y-73660000D02*
X90190000Y-71710000D01*
X90190000Y-73660000D02*
X90190000Y-75610000D01*
X85070000Y-73660000D02*
X85070000Y-71710000D01*
%TO.C,U2*%
X93010000Y-82530000D02*
X89260000Y-82530000D01*
X93010000Y-82530000D02*
X93010000Y-87650000D01*
X93010000Y-87650000D02*
X90760000Y-87650000D01*
%TO.C,TP1*%
X70800000Y-55880000D02*
G75*
G03*
X70800000Y-55880000I-950000J0D01*
G01*
%TO.C,TP2*%
X70800000Y-49530000D02*
G75*
G03*
X70800000Y-49530000I-950000J0D01*
G01*
%TO.C,TP3*%
X81595000Y-50165000D02*
G75*
G03*
X81595000Y-50165000I-950000J0D01*
G01*
%TO.C,TP4*%
X73975000Y-60960000D02*
G75*
G03*
X73975000Y-60960000I-950000J0D01*
G01*
%TO.C,TP6*%
X79690000Y-71120000D02*
G75*
G03*
X79690000Y-71120000I-950000J0D01*
G01*
%TO.C,TP7*%
X79690000Y-76200000D02*
G75*
G03*
X79690000Y-76200000I-950000J0D01*
G01*
%TO.C,TP8*%
X70800000Y-87630000D02*
G75*
G03*
X70800000Y-87630000I-950000J0D01*
G01*
%TO.C,TP5*%
X104705000Y-53340000D02*
G75*
G03*
X104705000Y-53340000I-1200000J0D01*
G01*
%TO.C,TP9*%
X78035000Y-92075000D02*
G75*
G03*
X78035000Y-92075000I-1200000J0D01*
G01*
%TO.C,SW1*%
X85380000Y-64210000D02*
X89880000Y-64210000D01*
X84130000Y-60210000D02*
X84130000Y-61710000D01*
X89880000Y-57710000D02*
X85380000Y-57710000D01*
X91130000Y-61710000D02*
X91130000Y-60210000D01*
%TO.C,R4*%
X72290000Y-69876936D02*
X72290000Y-70331064D01*
X73760000Y-69876936D02*
X73760000Y-70331064D01*
%TO.C,R5*%
X73760000Y-77427064D02*
X73760000Y-76972936D01*
X72290000Y-77427064D02*
X72290000Y-76972936D01*
%TO.C,R6*%
X65505000Y-88672936D02*
X65505000Y-89127064D01*
X64035000Y-88672936D02*
X64035000Y-89127064D01*
%TO.C,R1*%
X64670000Y-54837064D02*
X64670000Y-54382936D01*
X66140000Y-54837064D02*
X66140000Y-54382936D01*
%TO.C,R2*%
X66140000Y-48487064D02*
X66140000Y-48032936D01*
X64670000Y-48487064D02*
X64670000Y-48032936D01*
%TO.C,R3*%
X86767936Y-49430000D02*
X87222064Y-49430000D01*
X86767936Y-50900000D02*
X87222064Y-50900000D01*
%TO.C,J1*%
X50870000Y-58952380D02*
X59500000Y-58952380D01*
X50870000Y-59779045D02*
X59500000Y-59779045D01*
X59500000Y-61870000D02*
X59910000Y-61870000D01*
X50870000Y-60723805D02*
X59500000Y-60723805D01*
X50870000Y-59424760D02*
X59500000Y-59424760D01*
X62010000Y-72030000D02*
X62450000Y-72030000D01*
X62010000Y-67670000D02*
X62450000Y-67670000D01*
X50870000Y-81280000D02*
X59500000Y-81280000D01*
X62010000Y-60050000D02*
X62390000Y-60050000D01*
X62010000Y-82190000D02*
X62450000Y-82190000D01*
X59500000Y-80370000D02*
X59910000Y-80370000D01*
X59500000Y-67670000D02*
X59910000Y-67670000D01*
X50870000Y-60960000D02*
X59500000Y-60960000D01*
X59500000Y-79650000D02*
X59910000Y-79650000D01*
X62010000Y-72750000D02*
X62450000Y-72750000D01*
X59500000Y-69490000D02*
X59910000Y-69490000D01*
X50870000Y-58360000D02*
X50870000Y-83880000D01*
X62010000Y-70210000D02*
X62450000Y-70210000D01*
X50870000Y-59306665D02*
X59500000Y-59306665D01*
X59500000Y-82910000D02*
X59910000Y-82910000D01*
X62010000Y-75290000D02*
X62450000Y-75290000D01*
X59500000Y-77830000D02*
X59910000Y-77830000D01*
X50870000Y-58360000D02*
X59500000Y-58360000D01*
X50870000Y-60605710D02*
X59500000Y-60605710D01*
X59500000Y-64410000D02*
X59910000Y-64410000D01*
X62010000Y-77830000D02*
X62450000Y-77830000D01*
X62010000Y-64410000D02*
X62450000Y-64410000D01*
X50870000Y-71120000D02*
X59500000Y-71120000D01*
X62010000Y-65130000D02*
X62450000Y-65130000D01*
X62010000Y-62590000D02*
X62450000Y-62590000D01*
X50870000Y-58598095D02*
X59500000Y-58598095D01*
X59500000Y-70210000D02*
X59910000Y-70210000D01*
X50870000Y-78740000D02*
X59500000Y-78740000D01*
X50870000Y-60841900D02*
X59500000Y-60841900D01*
X62010000Y-80370000D02*
X62450000Y-80370000D01*
X50870000Y-60487615D02*
X59500000Y-60487615D01*
X50870000Y-58716190D02*
X59500000Y-58716190D01*
X50870000Y-60015235D02*
X59500000Y-60015235D01*
X50870000Y-73660000D02*
X59500000Y-73660000D01*
X50870000Y-66040000D02*
X59500000Y-66040000D01*
X62010000Y-61870000D02*
X62450000Y-61870000D01*
X50870000Y-59070475D02*
X59500000Y-59070475D01*
X59500000Y-75290000D02*
X59910000Y-75290000D01*
X59500000Y-58360000D02*
X59500000Y-83880000D01*
X59500000Y-62590000D02*
X59910000Y-62590000D01*
X62010000Y-79650000D02*
X62450000Y-79650000D01*
X59500000Y-77110000D02*
X59910000Y-77110000D01*
X62010000Y-69490000D02*
X62450000Y-69490000D01*
X62010000Y-66950000D02*
X62450000Y-66950000D01*
X59500000Y-72030000D02*
X59910000Y-72030000D01*
X50870000Y-58834285D02*
X59500000Y-58834285D01*
X59500000Y-82190000D02*
X59910000Y-82190000D01*
X50870000Y-63500000D02*
X59500000Y-63500000D01*
X50870000Y-60251425D02*
X59500000Y-60251425D01*
X62010000Y-74570000D02*
X62450000Y-74570000D01*
X50870000Y-60133330D02*
X59500000Y-60133330D01*
X50870000Y-60369520D02*
X59500000Y-60369520D01*
X59500000Y-74570000D02*
X59910000Y-74570000D01*
X59500000Y-59330000D02*
X59910000Y-59330000D01*
X59500000Y-66950000D02*
X59910000Y-66950000D01*
X50870000Y-59188570D02*
X59500000Y-59188570D01*
X62010000Y-77110000D02*
X62450000Y-77110000D01*
X50870000Y-68580000D02*
X59500000Y-68580000D01*
X50870000Y-59660950D02*
X59500000Y-59660950D01*
X50870000Y-59542855D02*
X59500000Y-59542855D01*
X62010000Y-59330000D02*
X62390000Y-59330000D01*
X50870000Y-59897140D02*
X59500000Y-59897140D01*
X50870000Y-58480000D02*
X59500000Y-58480000D01*
X50870000Y-83880000D02*
X59500000Y-83880000D01*
X59500000Y-60050000D02*
X59910000Y-60050000D01*
X50870000Y-76200000D02*
X59500000Y-76200000D01*
X62010000Y-82910000D02*
X62450000Y-82910000D01*
X59500000Y-72750000D02*
X59910000Y-72750000D01*
X59500000Y-65130000D02*
X59910000Y-65130000D01*
%TO.C,D4*%
X60370000Y-91750000D02*
X60370000Y-93670000D01*
X63230000Y-91750000D02*
X60370000Y-91750000D01*
X60370000Y-93670000D02*
X63230000Y-93670000D01*
%TO.C,D1*%
X60370000Y-51110000D02*
X60370000Y-53030000D01*
X63230000Y-51110000D02*
X60370000Y-51110000D01*
X60370000Y-53030000D02*
X63230000Y-53030000D01*
%TO.C,D2*%
X60370000Y-44760000D02*
X60370000Y-46680000D01*
X63230000Y-44760000D02*
X60370000Y-44760000D01*
X60370000Y-46680000D02*
X63230000Y-46680000D01*
%TO.C,D3*%
X85135000Y-45395000D02*
X85135000Y-47315000D01*
X87995000Y-45395000D02*
X85135000Y-45395000D01*
X85135000Y-47315000D02*
X87995000Y-47315000D01*
%TO.C,C2*%
X93470000Y-84943733D02*
X93470000Y-85236267D01*
X94490000Y-84943733D02*
X94490000Y-85236267D01*
%TO.C,C1*%
X86213733Y-69725000D02*
X86506267Y-69725000D01*
X86213733Y-68705000D02*
X86506267Y-68705000D01*
%TD*%
M02*
