M48
; DRILL file {KiCad (6.0.7)} date Wed Oct  5 11:55:31 2022
; FORMAT={-:-/ absolute / metric / decimal}
; #@! TF.CreationDate,2022-10-05T11:55:31+02:00
; #@! TF.GenerationSoftware,Kicad,Pcbnew,(6.0.7)
; #@! TF.FileFunction,Plated,1,2,PTH
FMAT,2
METRIC
; #@! TA.AperFunction,Plated,PTH,ComponentDrill
T1C0.700
; #@! TA.AperFunction,Plated,PTH,ViaDrill
T2C1.000
; #@! TA.AperFunction,Plated,PTH,ComponentDrill
T3C1.000
; #@! TA.AperFunction,Plated,PTH,ComponentDrill
T4C1.100
%
G90
G05
T1
X69.85Y-49.53
X69.85Y-55.88
X69.85Y-87.63
X73.025Y-60.96
X78.74Y-71.12
X78.74Y-76.2
X80.645Y-50.165
T2
X69.85Y-69.215
X69.85Y-78.105
X86.36Y-84.455
X86.36Y-87.63
X95.25Y-66.675
T3
X60.96Y-59.69
X60.96Y-62.23
X60.96Y-64.77
X60.96Y-67.31
X60.96Y-69.85
X60.96Y-72.39
X60.96Y-74.93
X60.96Y-77.47
X60.96Y-80.01
X60.96Y-82.55
X63.5Y-59.69
X63.5Y-62.23
X63.5Y-64.77
X63.5Y-67.31
X63.5Y-69.85
X63.5Y-72.39
X63.5Y-74.93
X63.5Y-77.47
X63.5Y-80.01
X63.5Y-82.55
X76.835Y-92.075
X103.505Y-53.34
T4
X84.38Y-58.71
X84.38Y-63.21
X90.88Y-58.71
X90.88Y-63.21
T0
M30
